<svg id="Layer_1" data-name="Layer 1" xmlns="http://www.w3.org/2000/svg" viewBox="0 0 800 800"><path d="M142.32,360.48a55.13,55.13,0,0,0-1.22-10.43c-4.74-22-23.89-40.62-69.22-40.62H17.11V469h11V418.44H68c56.69-1.93,74.3-29.46,74.3-56.43C142.34,361.5,142.34,361,142.32,360.48ZM62,415.68H28.12V312.18H64.46c52.83,0,69.63,25.6,69.63,51.2C134.09,389.53,117,415.68,62,415.68Z"/><path d="M222.75,338.61c-19.82,1-52.58,10.32-67.32,18.32l-1.22.67,2.43,9.76.32,1.25c16.79-14.31,50.94-26.24,70.47-27.8,20.3-1.61,36.33,9.91,36.33,34.69C206.49,385.86,159,407.69,153.62,448.34a57.14,57.14,0,0,0-.51,7.81A65,65,0,0,0,154.33,469h10.6a79.11,79.11,0,0,1-.81-11.74,71.52,71.52,0,0,1,.55-8.91c3.74-30,27.92-57.81,99.09-70.09V469h11V387.61C274.77,351,250.52,337.23,222.75,338.61Z"/><path d="M379.28,448.34l-1-2.21-16-36.23c-7.43-17.06-24.22-17.34-39.91-12.38v-.28c32.63-24.49,36.76-28.62,54.65-35.5l9.24-23.5-89.77,71.11V309.43h-11V469h11V412.11c20.1-11.29,43.49-23.4,52.58-3.86l18.34,40.09L376.87,469H388.4Z"/><path d="M542.3,407.43c0-46.25-31.1-68.54-63.86-68.54-36.33,0-74.59,27.52-74.59,80.65a104.28,104.28,0,0,0,3.35,26.59c.2.74.4,1.49.61,2.21A89.4,89.4,0,0,0,416.67,469h8.88a90.29,90.29,0,0,1-7.89-20.65,106.5,106.5,0,0,1-3.08-23.3h125.8A101.28,101.28,0,0,0,542.3,407.43Zm-10.46,14.86H414.58c0-54.23,33.31-81.2,64.69-81.2,28.08,0,54.5,21.47,54.5,64.13A75.3,75.3,0,0,1,531.84,422.29Z"/><path d="M650.46,343.56c-2.54-.61-4.38-.9-4.38-.9-37.38-6.43-64.73,23.63-80.1,84h-.28V338.34h-11V469h11V435c15.25-61.82,44-96.57,79-81.75.45.18.9.37,1.36.59s1.1.51,1.65.79l2.75-11Z"/><path d="M673.61,459.46v-.1l-.68-121.29H662.6V462.21A59.19,59.19,0,0,0,663,469h11.27A68.64,68.64,0,0,1,673.61,459.46Zm98.27-121.39v76c-.58,12.36,0,23.12,0,23.12V469h11V338.07Z"/><path d="M274.77,459.36V469H154.33a15,15,0,0,1-1.22-6,12.7,12.7,0,0,1,.51-3.64Z"/><path d="M543.56,459.36V469H419a36,36,0,0,1-7.1-9.63Z"/><path d="M782.89,459.36V469H671.23a13.25,13.25,0,0,1-.37-3.18v-6.46Z"/></svg>