<?xml version="1.0" encoding="UTF-8"?>
<svg id="pause" xmlns="http://www.w3.org/2000/svg" viewBox="0 0 194 194">
  <defs>
    <style>
      .cls-1, .cls-2, .cls-3, .cls-4, .cls-5, .cls-6, .cls-7, .cls-8, .cls-9, .cls-10 {
        stroke-miterlimit: 10;
      }

      .cls-1, .cls-2, .cls-3, .cls-4, .cls-5, .cls-6, .cls-7, .cls-9 {
        stroke-width: .5px;
      }

      .cls-1, .cls-11, .cls-12, .cls-9 {
        stroke-linecap: round;
      }

      .cls-1, .cls-12, .cls-6, .cls-10 {
        fill: none;
      }

      .cls-1, .cls-4 {
        stroke: #000;
      }

      .cls-2 {
        fill: #666158;
      }

      .cls-2, .cls-11, .cls-12, .cls-3, .cls-5, .cls-6, .cls-7, .cls-8, .cls-9, .cls-10 {
        stroke: #532d20;
      }

      .cls-11, .cls-12 {
        stroke-linejoin: round;
      }

      .cls-11, .cls-8 {
        fill: #532d20;
      }

      .cls-11, .cls-10 {
        stroke-width: 2px;
      }

      .cls-3 {
        fill: #cdc0ad;
      }

      .cls-13, .cls-5 {
        fill: #aa8675;
      }

      .cls-7, .cls-9 {
        fill: #eeece5;
      }

      .cls-8 {
        stroke-width: .08px;
      }
    </style>
  </defs>
  <g>
    <path class="cls-6" d="M156.8,91.05s-1.54-.83-3.9-.66c-2.36.17-5.56,1.36-8.88,5.41-1.83-2.6-2.27-3.86-2.32-4.46.06.04.13.08.21.12,1.95-1.38,3.9-2.79,5.84-4.18.69-.16,1.71-.3,2.91-.13,2.66.37,4.34,2.06,5.83,3.58.1.12.21.22.32.32Z"/>
    <path class="cls-5" d="M150.21,102.48c-.82-.89-1.76-1.94-2.82-3.1-.13-.14-1.57-1.71-1.57-1.71h-.11c-.13-.04-.25-.06-.36-.09-.51-.65-.94-1.25-1.32-1.78,3.33-4.04,6.53-5.24,8.88-5.41,2.36-.17,3.9.66,3.9.66.25.26.5.53.74.81,0,0,.02.03.03.05.04.06.1.14.17.27h0c.5,1.05,1.23,4.59-7.53,10.3Z"/>
    <path class="cls-5" d="M145.34,97.58c-6.69-1.4-9.15-5.2-9.15-5.2-.84-1.29-1.67-3.38-.97-4.08.3-.3.83-.29,1.26-.2,1.73,1.08,3.48,2.16,5.21,3.25.05.6.49,1.86,2.32,4.46.38.53.81,1.13,1.32,1.78Z"/>
    <path class="cls-6" d="M157.81,103.58c-.53.53-.44.75-1.07,1.47-.36.4-.92,1.02-1.44,1.2-1.11.38-2.59-1.06-5.09-3.78,8.76-5.7,8.03-9.25,7.53-10.29h0c-.07-.14-.13-.22-.17-.28.07.08.12.14.18.23,2.17,2.57,3.53,5.78,3.08,8.03-.11.62-.29,1.46-.96,2.1-.7.66-1.27.49-2.07,1.31Z"/>
  </g>
  <g id="cloth">
    <path class="cls-3" d="M54.25,75.45l.48,14.52s-1.71,3.18-9.06,2.69v-19.09c0-.66.33-1.64.74-2.63.66-1.58,1.56-3.18,1.71-3.48.24-.48,0-.73-.24-.97-.05-.05-.09-.1-.14-.14-.21-.21-.34-.38-.44-.51-.28-.39-.16-.45-.16-.45.36-.27.4-.88.39-1.18l1.81.81.23-4.74c.7.43,1.56.91,2.46,1.31,2.13.95,2.66,1.67,3.36,2.38-2.28,3.47-1.15,11.49-1.15,11.49Z"/>
    <path class="cls-3" d="M49.59,60.28l-.23,4.74-1.81-.81-.39-.17.45-3.25.2-1.43.03-.22h.07s.69.52,1.7,1.14Z"/>
    <path class="cls-3" d="M59.87,69.42s-5.12,3.51-5.62,6.04c0,0-1.13-8.02,1.15-11.49.02.03.04.05.07.07.73.73,4.4,5.38,4.4,5.38Z"/>
    <path class="cls-4" d="M47.79,59.36l-.2,1.43c-.14-.03-.29-.09-.45-.17-.49-.25-.54-.38-1.73-.47-1.15-.09-2.04.57-2.09.6-.24.02-.39.03-.39.03-.04-.65-.07-1.22-.06-1.49.05-.05.1-.1.14-.15.24-.26.41-.52.54-.73.18-.3.51-.49.86-.49h1.85c.37,0,.71.21.89.53.11.21.26.46.45.69.05.07.11.15.19.22Z"/>
    <path class="cls-2" d="M47.54,64.21c0,.3-.03.91-.39,1.18-.73-.85,0-1.35,0-1.35l.39.17Z"/>
    <path class="cls-2" d="M47.75,66.34c-.23.49-.7,1.52-1.07,2.42.21-1.2.5-2.38.63-2.93.1.13.23.29.44.51Z"/>
    <path class="cls-3" d="M48.13,67.46c-.15.3-1.05,1.9-1.71,3.48.02-.63.12-1.4.26-2.17h0c.38-.91.84-1.94,1.07-2.43.04.04.09.09.14.14.24.24.49.49.24.97Z"/>
    <path class="cls-6" d="M46.42,70.95h0"/>
    <path class="cls-3" d="M36.61,75.3c-1-3.18-5.86-5.63-5.86-5.63l4.89-5.87c2.16,3.36,1.01,11.19.96,11.51Z"/>
    <line class="cls-6" x1="47.82" y1="59.14" x2="47.6" y2="59.14"/>
    <path class="cls-3" d="M45.07,92.51v.21s-7.22.19-8.93-2.74c0-1.47.47-14.68.47-14.68h0c.04-.32,1.2-8.15-.96-11.51,0,0,.73-1.22,1.47-1.47.52-.17,2.53-1.08,4.13-2.03-.23,1.41-.47,2.82-.71,4.23.01,0,.68-.3,1.35-.49.28.21.62.56.85,1.07.28.63.28,1.22.2,1.67-.18.26-.29.51-.2.69.23.47,1.81,2.28,2.16,4.15.42.46.19,18.74.16,20.9Z"/>
    <path class="cls-3" d="M43.17,63.98c-.24-.17-.76-.09-1.28.05-.68.19-1.34.49-1.35.49.23-1.41.47-2.82.71-4.23.66-.39,1.26-.79,1.64-1.15,0,.02-.01.08-.01.15,0,.27.02.84.06,1.49,0,.05,0,.1.01.15.08,1.32.21,2.9.22,3.04Z"/>
    <line class="cls-6" x1="43.02" y1="59.14" x2="42.89" y2="59.14"/>
    <path class="cls-6" d="M44.95,71.87c-.01-.09-.03-.17-.04-.26"/>
    <path class="cls-3" d="M42.94,66.77c.08-.44.08-1.04-.2-1.67-.23-.51-.58-.85-.85-1.07.52-.15,1.05-.23,1.28-.05.02.02.04.03.06.05.14.17.21.63.21.68.02.14.02.17.03.3.05.38.24.62.24.73,0,.15-.48.59-.78,1.02Z"/>
    <path class="cls-6" d="M43.17,63.99h0"/>
    <path class="cls-7" d="M59.87,69.42s-.72,4.49-5.62,6.04c.5-2.53,5.62-6.04,5.62-6.04Z"/>
    <path class="cls-9" d="M36.61,75.3h0c-4.8-.7-5.81-5.41-5.85-5.63h0s4.86,2.45,5.86,5.63Z"/>
    <path class="cls-1" d="M44.94,55.83c-.29-.17-.49-.48-.49-.85,0-.54.44-.98.98-.98s.98.44.98.98c0,.04,0,.08,0,.12"/>
    <path class="cls-1" d="M45.42,57.92c0-.52.04-.49.5-.49.49,0,.49-.49.49-.49v-1.71s0-.12,0-.12"/>
  </g>
  <g>
    <path class="cls-8" d="M49.16,83.9h0s0,.03-.02.04c-.29.28-.49,1.45-.55,3.31,0,.01,0,.02,0,.03h0s0,.07,0,.1c0,0,0,.01,0,.02,0,.03,0,.05,0,.08,0,.09,0,.17,0,.26,0,0,0,.01-.01.01s-.01,0-.01-.01c0-.09,0-.18,0-.26,0-.03,0-.06,0-.09h0s0-.08,0-.12c0,0,0-.01,0-.02-.07-1.87-.26-3.04-.55-3.32-.01,0-.02-.02-.02-.04h0s.02-.04.04-.05c.29-.09.48-.44.54-1,0-.01.01-.02.02-.02.01,0,.02,0,.02.02.06.56.25.91.54,1,.02,0,.04.03.04.05Z"/>
    <path class="cls-8" d="M51.08,83.8c-.33.46-.42.85-.25,1.11.01.02,0,.04,0,.05h0s-.02.02-.03.02c-.34,0-1.05.54-2.05,1.52-.03.03-.07.07-.1.1l-.02.02s0,0-.01.01c-.06.07-.13.13-.2.2,0,0,0,0-.01,0,0,0-.01,0-.02,0-.02,0-.04-.02-.04-.04,0,0,0-.02,0-.03.03-.04.07-.08.1-.12.04-.04.07-.09.1-.13v-.02s.03-.02.04-.03c.9-1.15,1.37-1.95,1.34-2.29,0-.01,0-.03.02-.04h0s.03-.02.05,0c.28.13.66,0,1.07-.38,0,0,.02,0,.03,0,0,0,0,.01,0,.02,0,0,0,0,0,.01Z"/>
    <path class="cls-8" d="M48.74,86.86s-.01,0-.02,0c0,0,0,0-.01,0-.07-.07-.13-.14-.2-.2,0,0,0,0-.01-.01,0,0-.02-.02-.02-.02-.04-.03-.07-.07-.1-.1-1-.99-1.71-1.52-2.05-1.52-.01,0-.03,0-.03-.02h0s-.01-.04,0-.05c.16-.26.07-.66-.26-1.12,0-.01,0-.02,0-.03,0,0,.02,0,.02,0,.42.38.8.52,1.08.39.02,0,.04,0,.05,0h0s.02.02.01.04c-.04.34.43,1.14,1.34,2.29,0,.01.02.02.02.03v.02s.08.09.12.13c.03.04.06.08.1.12.01.02.01.04,0,.06,0,0-.02,0-.03,0Z"/>
    <path class="cls-8" d="M48.58,87.48c0,.09,0,.17,0,.26,0,0,0,.01-.01.01h0s-.01,0-.01-.01c0-.09,0-.18,0-.26h.04Z"/>
  </g>
  <path class="cls-12" d="M42.75,123.18c-5.88,14.44,4.56,30.37,20.16,30.49,22.26.18,58.32-6.33,76.04-28.68,8.04-10.14,18.96-30.79,11-44-9.31-15.46-40.13-13.57-59-6-22.59,9.06-41.26,31.15-48.19,48.18Z"/>
  <path class="cls-10" d="M124.93,143.01h-56.62c-5.68,0-10.13-4.92-9.56-10.56l5.16-51.84c.14-1.42,1.33-2.51,2.75-2.51h17.09c1.23,1.52,5.63,6.34,12.88,6.34s11.36-4.55,12.83-6.34h17.09c1.42,0,2.6,1.09,2.75,2.51l5.16,51.84c.57,5.63-3.88,10.56-9.56,10.56h.05Z"/>
  <path id="handle" class="cls-10" d="M70.34,78.15c-2.32-17.52,11.5-32.24,26.47-32.15,14.82.14,28.31,14.82,25.99,32.15"/>
  <path id="space" class="cls-11" d="M114.95,78c-2.06,2.54-8.43,9.11-18.57,9.18-10.48,0-16.86-6.99-18.64-9.18h37.21Z"/>
  <path class="cls-13" d="M73.57,92.73l.05.16c.43,1.31,1.65,2.2,3.03,2.2h.17c.63,0,.89.81.38,1.18l-.14.1c-1.12.81-1.59,2.25-1.16,3.57l.05.16c.19.6-.49,1.1-1,.73l-.14-.1c-1.12-.81-2.63-.81-3.75,0l-.14.1c-.51.37-1.2-.13-1-.73l.05-.16c.43-1.31-.04-2.75-1.16-3.57l-.14-.1c-.51-.37-.25-1.18.38-1.18h.17c1.38,0,2.61-.89,3.03-2.2l.05-.16c.19-.6,1.04-.6,1.24,0Z"/>
  <path class="cls-13" d="M86.57,107.64l.05.16c.43,1.31,1.65,2.2,3.03,2.2h.17c.63,0,.89.81.38,1.18l-.14.1c-1.12.81-1.59,2.25-1.16,3.57l.05.16c.19.6-.49,1.1-1,.73l-.14-.1c-1.12-.81-2.63-.81-3.75,0l-.14.1c-.51.37-1.2-.13-1-.73l.05-.16c.43-1.31-.04-2.75-1.16-3.57l-.14-.1c-.51-.37-.25-1.18.38-1.18h.17c1.38,0,2.61-.89,3.03-2.2l.05-.16c.19-.6,1.04-.6,1.24,0Z"/>
  <path class="cls-13" d="M97.57,93.64l.05.16c.43,1.31,1.65,2.2,3.03,2.2h.17c.63,0,.89.81.38,1.18l-.14.1c-1.12.81-1.59,2.25-1.16,3.57l.05.16c.19.6-.49,1.1-1,.73l-.14-.1c-1.12-.81-2.63-.81-3.75,0l-.14.1c-.51.37-1.2-.13-1-.73l.05-.16c.43-1.31-.04-2.75-1.16-3.57l-.14-.1c-.51-.37-.25-1.18.38-1.18h.17c1.38,0,2.61-.89,3.03-2.2l.05-.16c.19-.6,1.04-.6,1.24,0Z"/>
  <path class="cls-13" d="M114.57,110.64l.05.16c.43,1.31,1.65,2.2,3.03,2.2h.17c.63,0,.89.81.38,1.18l-.14.1c-1.12.81-1.59,2.25-1.16,3.57l.05.16c.19.6-.49,1.1-1,.73l-.14-.1c-1.12-.81-2.63-.81-3.75,0l-.14.1c-.51.37-1.2-.13-1-.73l.05-.16c.43-1.31-.04-2.75-1.16-3.57l-.14-.1c-.51-.37-.25-1.18.38-1.18h.17c1.38,0,2.61-.89,3.03-2.2l.05-.16c.19-.6,1.04-.6,1.24,0Z"/>
  <path class="cls-13" d="M119.57,91.64l.05.16c.43,1.31,1.65,2.2,3.03,2.2h.17c.63,0,.89.81.38,1.18l-.14.1c-1.12.81-1.59,2.25-1.16,3.57l.05.16c.19.6-.49,1.1-1,.73l-.14-.1c-1.12-.81-2.63-.81-3.75,0l-.14.1c-.51.37-1.2-.13-1-.73l.05-.16c.43-1.31-.04-2.75-1.16-3.57l-.14-.1c-.51-.37-.25-1.18.38-1.18h.17c1.38,0,2.61-.89,3.03-2.2l.05-.16c.19-.6,1.04-.6,1.24,0Z"/>
  <path class="cls-13" d="M100.57,117.64l.05.16c.43,1.31,1.65,2.2,3.03,2.2h.17c.63,0,.89.81.38,1.18l-.14.1c-1.12.81-1.59,2.25-1.16,3.57l.05.16c.19.6-.49,1.1-1,.73l-.14-.1c-1.12-.81-2.63-.81-3.75,0l-.14.1c-.51.37-1.2-.13-1-.73l.05-.16c.43-1.31-.04-2.75-1.16-3.57l-.14-.1c-.51-.37-.25-1.18.38-1.18h.17c1.38,0,2.61-.89,3.03-2.2l.05-.16c.19-.6,1.04-.6,1.24,0Z"/>
  <path class="cls-13" d="M120.57,127.64l.05.16c.43,1.31,1.65,2.2,3.03,2.2h.17c.63,0,.89.81.38,1.18l-.14.1c-1.12.81-1.59,2.25-1.16,3.57l.05.16c.19.6-.49,1.1-1,.73l-.14-.1c-1.12-.81-2.63-.81-3.75,0l-.14.1c-.51.37-1.2-.13-1-.73l.05-.16c.43-1.31-.04-2.75-1.16-3.57l-.14-.1c-.51-.37-.25-1.18.38-1.18h.17c1.38,0,2.61-.89,3.03-2.2l.05-.16c.19-.6,1.04-.6,1.24,0Z"/>
  <path class="cls-13" d="M81.57,128.64l.05.16c.43,1.31,1.65,2.2,3.03,2.2h.17c.63,0,.89.81.38,1.18l-.14.1c-1.12.81-1.59,2.25-1.16,3.57l.05.16c.19.6-.49,1.1-1,.73l-.14-.1c-1.12-.81-2.63-.81-3.75,0l-.14.1c-.51.37-1.2-.13-1-.73l.05-.16c.43-1.31-.04-2.75-1.16-3.57l-.14-.1c-.51-.37-.25-1.18.38-1.18h.17c1.38,0,2.61-.89,3.03-2.2l.05-.16c.19-.6,1.04-.6,1.24,0Z"/>
  <path class="cls-13" d="M72.57,112.64l.05.16c.43,1.31,1.65,2.2,3.03,2.2h.17c.63,0,.89.81.38,1.18l-.14.1c-1.12.81-1.59,2.25-1.16,3.57l.05.16c.19.6-.49,1.1-1,.73l-.14-.1c-1.12-.81-2.63-.81-3.75,0l-.14.1c-.51.37-1.2-.13-1-.73l.05-.16c.43-1.31-.04-2.75-1.16-3.57l-.14-.1c-.51-.37-.25-1.18.38-1.18h.17c1.38,0,2.61-.89,3.03-2.2l.05-.16c.19-.6,1.04-.6,1.24,0Z"/>
</svg>