<svg width="24" height="24" viewBox="0 0 24 24" fill="none" xmlns="http://www.w3.org/2000/svg">
<path d="M17.8199 22.44H5.85993C4.65993 22.44 3.71993 21.4 3.83993 20.21L4.92993 9.25998C4.95993 8.95998 5.20993 8.72998 5.50993 8.72998H9.11993C9.37993 9.04998 10.3099 10.07 11.8399 10.07C13.3199 10.07 14.2399 9.10998 14.5499 8.72998H18.1599C18.4599 8.72998 18.7099 8.95998 18.7399 9.25998L19.8299 20.21C19.9499 21.4 19.0099 22.44 17.8099 22.44H17.8199Z" stroke="white" stroke-miterlimit="10"/>
<path d="M6.28989 8.7398C5.79989 5.0398 8.71989 1.9298 11.8799 1.9498C15.0099 1.9798 17.8599 5.0798 17.3699 8.7398" stroke="white" stroke-miterlimit="10"/>
<path d="M14.5501 8.74023C14.2501 9.11023 13.3201 10.0702 11.8401 10.0802C10.3101 10.0802 9.38012 9.06023 9.12012 8.74023H14.5401H14.5501Z" fill="white" stroke="white" stroke-miterlimit="10"/>
</svg>
