<?xml version="1.0" encoding="UTF-8"?>
<svg id="Layer" xmlns="http://www.w3.org/2000/svg" viewBox="0 0 24 24">
  <path d="M17.82,22.44H5.86c-1.2,0-2.14-1.04-2.02-2.23l1.09-10.95c.03-.3.28-.53.58-.53h3.61c.26.32,1.19,1.34,2.72,1.34,1.48,0,2.4-.96,2.71-1.34h3.61c.3,0,.55.23.58.53l1.09,10.95c.12,1.19-.82,2.23-2.02,2.23Z" style="fill: none; stroke: #000; stroke-miterlimit: 10;"/>
  <path id="handle" d="M6.29,8.74c-.49-3.7,2.43-6.81,5.59-6.79,3.13.03,5.98,3.13,5.49,6.79" style="fill: none; stroke: #000; stroke-miterlimit: 10;"/>
  <path id="space" d="M14.55,8.74c-.3.37-1.23,1.33-2.71,1.34-1.53,0-2.46-1.02-2.72-1.34h5.42Z" style="stroke: #000; stroke-miterlimit: 10;"/>
</svg>