<?xml version="1.0" encoding="UTF-8"?>
<svg id="Layer" xmlns="http://www.w3.org/2000/svg" version="1.1" viewBox="0 0 24 24">
  <!-- Generator: Adobe Illustrator 29.1.0, SVG Export Plug-In . SVG Version: 2.1.0 Build 142)  -->
  <defs>
    <style>
      .st0 {
        stroke-linecap: round;
        stroke-linejoin: round;
      }

      .st0, .st1 {
        stroke: #000;
      }

      .st1 {
        fill: none;
        stroke-miterlimit: 10;
      }
    </style>
  </defs>
  <path class="st1" d="M17.8,22.4H5.9c-1.2,0-2.1-1-2-2.2l1.1-10.9c0-.3.3-.5.6-.5h3.6c.3.3,1.2,1.3,2.7,1.3s2.4-1,2.7-1.3h3.6c.3,0,.5.2.6.5l1.1,10.9c.1,1.2-.8,2.2-2,2.2h0Z"/>
  <path id="handle" class="st1" d="M6.3,8.7c-.5-3.7,2.4-6.8,5.6-6.8,3.1,0,6,3.1,5.5,6.8"/>
  <path id="space" class="st0" d="M14.6,8.7c-.3.4-1.2,1.3-2.7,1.3-1.5,0-2.5-1-2.7-1.3h5.4Z"/>
</svg>