<?xml version="1.0" encoding="UTF-8"?>
<svg id="Layer_1" data-name="Layer 1" xmlns="http://www.w3.org/2000/svg" viewBox="0 0 150 150">
  <defs>
    <style>
      .cls-1 {
        fill: #e21f26;
      }
    </style>
  </defs>
  <path class="cls-1" d="M115.79,10.88c-3.07-3.14-7.35-4.88-11.76-4.88h-61.59c-4.41,0-8.68,1.74-11.76,4.88-3.14,3.14-4.94,7.41-4.94,11.82v106.01c0,2,.6,3.87,1.67,5.48,1.07,1.67,2.61,2.94,4.34,3.74,1.8.73,3.74,1,5.68.67,1.94-.33,3.67-1.2,5.14-2.54l28.39-26.05c.6-.53,1.4-.87,2.27-.87s1.67.33,2.27.87l28.39,26.05c1.8,1.74,4.21,2.67,6.75,2.67,1.4,0,2.81-.27,4.08-.8,1.8-.8,3.27-2.07,4.34-3.67,1.14-1.67,1.67-3.61,1.67-5.54V22.7c0-4.41-1.8-8.68-4.94-11.82ZM114.05,128.72c0,.6-.2,1.27-.53,1.8-.4.53-.87,1-1.47,1.27-.6.2-1.27.33-1.87.2-.67-.13-1.27-.4-1.74-.87l-28.39-26.05c-1.87-1.67-4.28-2.61-6.81-2.61s-4.94.94-6.81,2.61l-28.39,26.12c-.47.47-1.07.73-1.67.87-.67.07-1.34,0-1.94-.27-.6-.27-1.07-.67-1.47-1.2-.33-.6-.53-1.2-.53-1.87V22.7c0-2.67,1.07-5.21,2.94-7.08,1.87-1.87,4.48-2.94,7.08-2.94h61.59c2.67,0,5.21,1.07,7.08,2.94,1.87,1.87,2.94,4.41,2.94,7.08v106.01Z"/>
  <path class="cls-1" d="M114.05,22.7v106.01c0,.6-.2,1.27-.53,1.8-.4.53-.87,1-1.47,1.27-.6.2-1.27.33-1.87.2-.67-.13-1.27-.4-1.74-.87l-28.39-26.05c-1.87-1.67-4.28-2.61-6.81-2.61s-4.94.94-6.81,2.61l-28.39,26.12c-.47.47-1.07.73-1.67.87-.67.07-1.34,0-1.94-.27-.6-.27-1.07-.67-1.47-1.2-.33-.6-.53-1.2-.53-1.87V22.7c0-2.67,1.07-5.21,2.94-7.08,1.87-1.87,4.48-2.94,7.08-2.94h61.59c2.67,0,5.21,1.07,7.08,2.94,1.87,1.87,2.94,4.41,2.94,7.08Z"/>
</svg>