<svg width="194" height="194" viewBox="0 0 194 194" fill="none" xmlns="http://www.w3.org/2000/svg">
<path d="M137.45 152.5C140.6 150.67 145.11 151.35 147.45 154.5C150.04 157.99 148.93 163.11 145.45 165.5C142.35 167.63 137.91 167.19 135.45 164.5C132.29 161.04 133.36 154.87 137.45 152.5Z" stroke="#BDBDBD" stroke-width="3" stroke-miterlimit="10"/>
<path d="M139.67 160H139.64" stroke="#BDBDBD" stroke-miterlimit="10"/>
<path d="M139.67 160H139.64C137.55 159.87 135.92 158.34 134.29 156.16C134.06 155.86 133.83 155.54 133.6 155.21C132.54 153.68 131.53 152.02 130.66 150.47" stroke="#BDBDBD" stroke-miterlimit="10"/>
<path d="M99.4501 131.5C102.79 130.02 106.79 131.43 108.45 134.5C110.43 138.17 108.49 143.17 104.45 144.5C100.67 145.74 96.3801 143.35 95.4501 139.5C94.6801 136.32 96.3801 132.86 99.4501 131.5Z" stroke="#BDBDBD" stroke-width="3" stroke-miterlimit="10"/>
<path d="M91.21 128.34C91.24 128.7 91.3 129.05 91.38 129.4C92.36 134.14 96.67 137.53 99.5 139.29" stroke="#BDBDBD" stroke-miterlimit="10"/>
<path d="M101.9 140.63C101.1 140.47 100.29 139.99 99.5 139.29" stroke="#BDBDBD" stroke-miterlimit="10"/>
<path d="M103.45 140.5C102.94 140.7 102.42 140.74 101.9 140.63C101.57 140.47 100.66 140.02 99.5002 139.29C98.2402 138.19 97.0302 136.57 95.9702 134.9C94.4202 132.44 93.2002 129.87 92.6602 128.67L99.2202 124.97C100.25 126.74 101.41 128.84 102.39 130.92C104.46 135.29 105.74 139.58 103.45 140.5Z" fill="#BDBDBD" stroke="#BDBDBD" stroke-miterlimit="10"/>
<path d="M70.45 159.5C74.36 157.83 79.96 159.27 81.45 163.5C82.9 167.61 79.77 172.42 75.45 173.5C71.08 174.59 66.09 171.73 65.45 167.5C64.92 164.01 67.52 160.75 70.45 159.5Z" stroke="#BDBDBD" stroke-width="3" stroke-miterlimit="10"/>
<path d="M72.6699 167.85C73.8299 168.63 74.8499 168.95 75.4499 168.5" stroke="#BDBDBD" stroke-miterlimit="10"/>
<path d="M62.28 152.52C62.36 153.94 62.54 155.23 62.8 156.4C64.47 163.89 69.48 166.77 72.67 167.85" stroke="#BDBDBD" stroke-miterlimit="10"/>
<path d="M75.45 168.5C77.69 166.82 76.43 162.42 74.88 158.87C74.33 157.62 73.76 156.48 73.29 155.6L64.45 154.5C64.72 156.32 65.38 159.11 67.18 161.96C68.6 164.2 71.14 166.76 73 168" fill="#BDBDBD"/>
<path d="M75.45 168.5C77.69 166.82 76.43 162.42 74.88 158.87C74.33 157.62 73.76 156.48 73.29 155.6L64.45 154.5C64.72 156.32 65.38 159.11 67.18 161.96C68.6 164.2 71.14 166.76 73 168" stroke="#BDBDBD" stroke-miterlimit="10"/>
<path d="M51.45 146.5C54.85 143.33 61.07 143.9 63.45 147.5C66.1 151.49 63.42 158.33 58.45 159.5C54.97 160.32 50.75 158.26 49.45 154.5C48.45 151.61 49.41 148.41 51.45 146.5Z" stroke="#BDBDBD" stroke-width="3" stroke-miterlimit="10"/>
<path d="M47.4499 142.5C47.0999 142.78 48.7399 145.59 50.3999 147.74C52.4899 150.46 54.7399 152.3 56.4499 153.5" stroke="#BDBDBD" stroke-miterlimit="10"/>
<path d="M59.45 154.5C58.96 154.97 57.39 154.16 56.45 153.5C53.89 151.69 54.12 149.53 51.71 146.29C50.34 144.45 48.64 142.95 47.85 142.57C47.69 142.49 47.67 142.29 47.79 142.16L50.96 138.99C51.08 138.87 51.28 138.9 51.36 139.04L56.93 148.62C56.93 148.62 56.94 148.63 56.94 148.64C58.55 151.11 60.11 153.86 59.45 154.49V154.5Z" fill="#BDBDBD" stroke="#BDBDBD" stroke-miterlimit="10"/>
<path d="M132.36 45.03C132.03 43.99 131.24 42.95 129.45 42.5C129.39 42.5 129.33 42.47 129.26 42.45C128.78 42.33 128.06 42.16 127.17 41.95C126.56 41.8 125.86 41.64 125.09 41.45C124.44 41.3 123.74 41.14 123 40.96C122.33 40.81 121.63 40.65 120.91 40.47C120.23 40.32 119.53 40.15 118.82 39.99C118.14 39.83 117.44 39.67 116.74 39.5C116.05 39.34 115.35 39.18 114.65 39.02C113.95 38.86 113.25 38.69 112.56 38.53C111.85 38.37 111.15 38.2 110.47 38.05C109.76 37.88 109.06 37.72 108.38 37.56C107.66 37.4 106.96 37.23 106.29 37.08C105.55 36.91 104.85 36.75 104.2 36.6C103.43 36.42 102.73 36.26 102.12 36.12C100.46 35.73 99.4501 35.5 99.4501 35.5C99.4501 35.5 99.1701 35.41 98.7801 35.36C98.5801 36.65 98.4501 37.5 98.4501 37.5L97.6801 43.59L96.2101 55.21L96.0401 56.54L94.3901 69.61L94.2301 70.9L93.8901 73.59C93.9101 73.73 93.9301 73.86 93.9501 74" stroke="#BDBDBD" stroke-width="2" stroke-miterlimit="10"/>
<path d="M98.78 35.36C99.27 32.68 99.77 29.99 100.26 27.31C100.78 24.48 102.48 22.01 104.92 20.51C106.35 19.57 108.56 18.33 111.45 17.5C116.75 15.97 121.27 16.84 125.45 17.5C145.89 20.75 146.45 22.02 146.45 22.5C146.45 23.56 143.65 23.51 140.45 26.5C140.38 26.57 140.3 26.64 140.2 26.74C138.07 28.86 137.03 31.09 136.45 32.5C133.09 40.62 132.45 44.5 132.45 44.5C132.42 44.67 132.39 44.85 132.36 45.02C130.3 56.8 128.16 68.57 126.08 80.34V80.37C125.93 81.25 125.78 82.12 125.62 83C124.54 89.16 123.47 95.33 122.45 101.5C120.86 111.04 119.6 117.51 118.54 125.63C117.84 131.01 117.58 133.83 117.45 135.5C116.94 141.84 116.89 147.16 116.95 151" stroke="#BDBDBD" stroke-width="2" stroke-miterlimit="10"/>
<path d="M93.3601 73.83C92.9101 77.36 92.4701 80.44 92.0801 82.98V83C91.9101 84.14 91.7501 85.17 91.6001 86.08V86.1H91.5901C91.5701 86.24 91.5501 86.37 91.5301 86.5C89.0601 101.69 87.1201 107.6 86.5301 118.5C86.2801 123.13 86.3601 126.99 86.4901 129.61C86.4901 129.75 86.4901 129.89 86.5101 130.02C86.5101 130.19 86.5101 130.35 86.5301 130.5" stroke="#BDBDBD" stroke-width="2" stroke-miterlimit="10"/>
<path d="M114.65 39.02L112.12 53.74" stroke="#BDBDBD" stroke-width="0.25" stroke-miterlimit="10"/>
<path d="M94.1801 74.83C94.8001 76.82 95.4401 78.93 96.1001 81.21V81.23C96.1801 81.53 96.8001 83.69 97.4301 85.98C100.3 96.42 102.12 104.73 102.95 110C102.95 110 104.29 118.73 101.06 123.02C100.48 123.79 99.8401 124.43 99.2101 124.96C97.7601 126.18 96.3001 126.86 95.3501 127.23L92.3801 128.03L86.4901 129.61L48.1601 139.91C47.2701 140.15 47.0501 141.31 47.7901 141.86L52.7801 145.53L64.0101 153.79C64.0101 153.79 64.0501 153.82 64.0701 153.83C64.8601 154.37 66.0601 155.01 67.6001 155.18C68.4701 155.27 69.1201 155.17 69.3201 155.14C69.8401 155.07 71.0801 154.94 72.8301 154.77C82.8201 153.8 109.53 151.5 115.94 151C116.28 150.97 116.61 150.95 116.94 150.92C122.71 150.49 127.09 150.32 130.45 150.1C131.49 150.04 132.43 149.97 133.28 149.89C137.25 149.48 139.35 148.78 140.63 146.84C140.71 146.73 140.77 146.62 140.84 146.51C142.28 144.04 141.8 141.22 138.94 133C131.7 112.25 126.54 106.76 124.94 96C124.75 94.7 124.64 93.4 124.64 93.4C124.51 91.8 124.49 90.41 124.51 89.33" stroke="#BDBDBD" stroke-width="2" stroke-miterlimit="10"/>
<path d="M96.21 55.21L96.43 55.19L98.43 55L100.43 54.82L102.44 54.63L104.44 54.45L106.44 54.26L108.44 54.08L110.45 53.89L112.45 53.71L114.45 53.52L122.42 52.79L124.42 52.6L126.44 52.42L130.95 52" stroke="#BDBDBD" stroke-miterlimit="10"/>
<path d="M94.5998 55.36L94.4298 55.38L92.7698 55.53L92.4198 55.56L90.4198 55.74L88.7598 55.9L88.4198 55.93L86.4198 56.11L84.7498 56.26L84.4099 56.3L82.4099 56.48L80.7398 56.63L78.4099 56.85L76.7299 57L76.4099 57.03L74.3998 57.22L73.0898 57.34" stroke="#BDBDBD" stroke-miterlimit="10"/>
<path d="M44.8599 49.66C45.2199 49.8 45.5899 49.95 45.9499 50.09C46.4199 50.28 46.8799 50.46 47.3399 50.64H47.3499L47.9499 50.88C48.6199 51.15 49.2899 51.41 49.9499 51.67C50.6199 51.94 51.2899 52.2 51.9499 52.47C52.2499 52.59 52.5499 52.7 52.8399 52.82C53.2099 52.96 53.5799 53.11 53.9499 53.26C54.6199 53.52 55.2899 53.78 55.9499 54.05C56.2299 54.16 56.5199 54.27 56.7999 54.39C57.1899 54.54 57.5699 54.69 57.9499 54.84C58.6199 55.1 59.2899 55.37 59.9499 55.63C60.2199 55.74 60.4899 55.84 60.7599 55.95C61.1599 56.11 61.5499 56.27 61.9499 56.42C62.1199 56.49 62.2799 56.55 62.4499 56.62" stroke="#BDBDBD" stroke-miterlimit="10"/>
<path d="M121.63 85.53C121.55 85.54 121.5 85.54 121.5 85.54L120.04 85.57H120L118.04 85.6H117.95L116.04 85.64H115.89L114.04 85.68H113.84L112.04 85.72H111.79L110.04 85.75H109.74L108.04 85.78H107.68L106.04 85.82H105.63L104.04 85.86H103.58L102.04 85.89H101.53L100.04 85.93H99.4699L98.0399 85.97H97.4299V85.98L96.1799 86H95.6899L95.3799 86.02L94.0499 86.04H93.3299L92.0499 86.07H91.6099L91.2699 86.09H90.8199L90.8099 86.1H90.0799L90.0499 86.11L89.2199 86.13L88.0499 86.15H87.1699L86.0499 86.18L85.1199 86.2L84.0499 86.22L83.0599 86.24H82.0499L81.0099 86.27L80.0399 86.29L78.9499 86.31L78.0399 86.33L76.8999 86.35H76.0399L74.8399 86.38L74.0399 86.4L72.7899 86.42H72.0399L70.7399 86.46H70.0399L68.6899 86.49H68.0399L66.8799 86.53H66.8699" stroke="#BDBDBD" stroke-miterlimit="10"/>
<path d="M65.95 62.1V62.23V70.75V75.2V86.13V86.35" stroke="#BDBDBD" stroke-miterlimit="10"/>
<path d="M66.87 86.53H66.86C66.55 86.39 66.2499 86.26 65.9499 86.13C65.2799 85.84 64.61 85.55 63.95 85.26C63.69 85.15 63.4399 85.04 63.1899 84.93C62.4699 84.62 61.76 84.31 61.04 84C59.62 83.38 58.1899 82.76 56.7599 82.14C56.0399 81.84 55.3399 81.53 54.6199 81.21C53.8999 80.91 53.1999 80.59 52.4799 80.29C51.7599 79.98 51.06 79.67 50.34 79.36C49.62 79.05 48.91 78.74 48.2 78.42C47.48 78.12 46.77 77.81 46.06 77.5C45.52 77.27 44.99 77.04 44.45 76.8V54.46" stroke="#BDBDBD" stroke-miterlimit="10"/>
<path d="M44.0598 49.38C47.9898 48.81 70.2798 46.44 85.0698 44.89C86.4798 44.74 87.8298 44.6 89.0798 44.47C90.5498 44.32 91.8998 44.17 93.0898 44.05C94.6398 43.89 95.9098 43.76 96.8198 43.67C96.9698 43.66 97.1098 43.65 97.2398 43.63C97.3998 43.61 97.5498 43.6 97.6798 43.58C97.7798 43.58 97.8798 43.56 97.9598 43.55" stroke="#BDBDBD" stroke-miterlimit="10"/>
<path d="M98.4499 43.5C98.4499 43.5 98.4099 43.51 98.3299 43.51C98.2799 43.52 98.1999 43.52 98.0899 43.54C98.0499 43.55 98.0099 43.55 97.9599 43.55C97.8799 43.56 97.7799 43.57 97.6799 43.58C97.5499 43.6 97.3999 43.61 97.2399 43.63C97.1099 43.65 96.9699 43.66 96.8199 43.67C95.8899 43.79 94.6099 43.93 93.0799 44.1C91.8799 44.23 90.5299 44.39 89.0799 44.55C87.7999 44.69 86.4499 44.84 85.0699 44.99C83.7499 45.15 82.3999 45.3 81.0499 45.45C79.7099 45.6 78.3599 45.75 77.0399 45.9C75.6499 46.06 74.3099 46.21 73.0299 46.35C71.5699 46.52 70.2099 46.67 69.0099 46.81C67.3099 47 65.9199 47.16 64.9999 47.26C64.4999 47.32 64.1499 47.36 63.9499 47.38C63.9499 47.38 61.9599 47.62 61.9499 47.62L60.9899 47.74C60.6399 47.78 60.2999 47.82 59.9499 47.86C59.2799 47.94 58.6199 48.02 57.9499 48.1C57.6199 48.14 57.2999 48.18 56.9699 48.21L55.9499 48.33C55.2799 48.41 54.6199 48.49 53.9499 48.57L52.9599 48.69C52.6199 48.73 52.2899 48.77 51.9499 48.81C50.7099 48.96 49.9499 49.05 49.9499 49.05C48.4699 49.23 45.8399 49.43 44.4199 49.5H44.4099" stroke="#BDBDBD" stroke-miterlimit="10"/>
<path d="M121.5 85.54C121.5 85.54 121.55 85.54 121.63 85.53C121.72 85.53 121.85 85.53 122.01 85.5C122.49 85.44 123.23 85.29 123.94 84.93" stroke="#BDBDBD" stroke-miterlimit="10"/>
<path d="M98.7799 35.36C98.5799 36.65 98.4499 37.5 98.4499 37.5L96.2099 55.21L94.5999 55.36" stroke="#BDBDBD" stroke-miterlimit="10"/>
<path d="M92.93 73.65H92.86L92.19 73.69L90.19 73.8L88.19 73.92L86.19 74.03L84.19 74.15L82.19 74.26L80.19 74.38L78.18 74.49V74.5L76.18 74.61L74.18 74.73L72.18 74.84L70.18 74.96L68.18 75.07L65.9499 75.2L63.95 75.32L61.95 75.43L59.95 75.55L57.95 75.66L55.95 75.78L53.95 75.89L51.95 76.01L49.95 76.12L47.95 76.24L45.95 76.35L44.45 76.44" stroke="#BDBDBD" stroke-miterlimit="10"/>
<path d="M93.8298 74.04V74.03L93.8398 74" stroke="#BDBDBD" stroke-width="3" stroke-miterlimit="10"/>
<path d="M125.62 83C125.56 83.23 125.5 83.4 125.45 83.5C125.3 83.79 125.11 84.04 124.88 84.26C124.62 84.53 124.32 84.73 124.01 84.89C123.99 84.91 123.96 84.92 123.94 84.93L122.02 84.23L120.07 83.52L118.08 82.8L116.09 82.08L114.1 81.36L112.11 80.63L110.12 79.91L108.12 79.19L106.13 78.46L104.14 77.74L102.15 77.02L100.16 76.3L98.1699 75.57L96.1799 74.85L94.1899 74.13" stroke="#BDBDBD" stroke-width="2" stroke-miterlimit="10"/>
<path d="M93.96 74.05V74.04" stroke="#BDBDBD" stroke-width="2" stroke-miterlimit="10"/>
<path d="M65.9499 58V62.1C65.6399 62.03 65.33 61.91 65.04 61.76L63.95 61.21L63.6699 61.06C63.0499 60.74 62.62 60.16 62.49 59.49C62.46 59.35 62.45 59.21 62.45 59.07V56.62C62.95 56.82 63.45 57.01 63.95 57.21C64.2 57.31 64.4599 57.41 64.7099 57.51C65.1199 57.67 65.5299 57.84 65.9499 58Z" stroke="#BDBDBD" stroke-miterlimit="10"/>
<path d="M47.7199 51.81L47.5299 54.42C47.4899 54.99 46.9999 55.36 46.5299 55.18C45.5399 54.78 44.5599 54.38 43.5699 53.98C42.8699 53.7 42.3999 52.93 42.3999 52.06V49.49C42.3999 49.17 42.6699 48.93 42.9299 49.02L44.4399 49.51L45.9399 49.99L46.7799 50.26C47.3699 50.45 47.7599 51.1 47.7099 51.81H47.7199Z" stroke="#BDBDBD" stroke-miterlimit="10"/>
<path d="M68.0298 86.53L68.1798 75.07L68.3398 62.23" stroke="#BDBDBD" stroke-width="0.25" stroke-miterlimit="10"/>
<path d="M70.0298 86.49L70.1798 74.96L70.3398 62.23" stroke="#BDBDBD" stroke-width="0.25" stroke-miterlimit="10"/>
<path d="M72.0298 86.46L72.1798 74.84L72.3398 62.23" stroke="#BDBDBD" stroke-width="0.25" stroke-miterlimit="10"/>
<path d="M74.3998 57.22L74.1798 74.73L74.0298 86.42" stroke="#BDBDBD" stroke-width="0.25" stroke-miterlimit="10"/>
<path d="M76.4098 57.03L76.1798 74.61L76.0298 86.38" stroke="#BDBDBD" stroke-width="0.25" stroke-miterlimit="10"/>
<path d="M78.4098 56.85L78.1798 74.5L78.0298 86.35" stroke="#BDBDBD" stroke-width="0.25" stroke-miterlimit="10"/>
<path d="M80.4098 56.67L80.1898 74.38L80.0298 86.31" stroke="#BDBDBD" stroke-width="0.25" stroke-miterlimit="10"/>
<path d="M82.4098 56.48L82.1898 74.26L82.0398 86.27" stroke="#BDBDBD" stroke-width="0.25" stroke-miterlimit="10"/>
<path d="M84.4098 56.3L84.1898 74.15L84.0398 86.24" stroke="#BDBDBD" stroke-width="0.25" stroke-miterlimit="10"/>
<path d="M86.4198 56.11L86.1898 74.03L86.0398 86.2" stroke="#BDBDBD" stroke-width="0.25" stroke-miterlimit="10"/>
<path d="M88.4198 55.93L88.1898 73.92L88.0398 86.16" stroke="#BDBDBD" stroke-width="0.25" stroke-miterlimit="10"/>
<path d="M90.4198 55.74L90.1898 73.8L90.0398 86.13" stroke="#BDBDBD" stroke-width="0.25" stroke-miterlimit="10"/>
<path d="M92.0398 86.09V86.07" stroke="#BDBDBD" stroke-width="0.25" stroke-miterlimit="10"/>
<path d="M92.4198 55.56L92.3998 56.86L92.2398 69.71L92.1898 73.69L92.0798 82.98V83" stroke="#BDBDBD" stroke-width="0.25" stroke-miterlimit="10"/>
<path d="M94.0398 86.05V86.04L94.1698 75.79V75.77L94.1798 74.83L94.1898 74.13L94.2298 70.9L94.2498 69.61L94.4098 56.68L94.4298 55.38" stroke="#BDBDBD" stroke-width="0.25" stroke-miterlimit="10"/>
<path d="M96.4298 55.19L96.1798 74.85L96.0498 84.75V84.77L96.0398 86.02" stroke="#BDBDBD" stroke-width="0.25" stroke-miterlimit="10"/>
<path d="M98.0398 85.98L98.1698 75.57L98.4298 55" stroke="#BDBDBD" stroke-width="0.25" stroke-miterlimit="10"/>
<path d="M97.95 93V92.81" stroke="#BDBDBD" stroke-width="0.25" stroke-miterlimit="10"/>
<path d="M100.43 54.82L100.16 76.3L100.04 85.94" stroke="#BDBDBD" stroke-width="0.25" stroke-miterlimit="10"/>
<path d="M102.44 54.63L102.15 77.02L102.04 85.9" stroke="#BDBDBD" stroke-width="0.25" stroke-miterlimit="10"/>
<path d="M104.44 54.45L104.14 77.74L104.04 85.87" stroke="#BDBDBD" stroke-width="0.25" stroke-miterlimit="10"/>
<path d="M106.44 54.26L106.13 78.46L106.04 85.83" stroke="#BDBDBD" stroke-width="0.25" stroke-miterlimit="10"/>
<path d="M108.44 54.08L108.12 79.19L108.04 85.79" stroke="#BDBDBD" stroke-width="0.25" stroke-miterlimit="10"/>
<path d="M110.45 53.89L110.12 79.91L110.04 85.75" stroke="#BDBDBD" stroke-width="0.25" stroke-miterlimit="10"/>
<path d="M112.45 53.71L112.11 80.63L112.04 85.72" stroke="#BDBDBD" stroke-width="0.25" stroke-miterlimit="10"/>
<path d="M114.04 85.68L114.1 81.36L114.45 53.52V53.5" stroke="#BDBDBD" stroke-width="0.25" stroke-miterlimit="10"/>
<path d="M116.04 85.64L116.09 82.08L116.45 53.5" stroke="#BDBDBD" stroke-width="0.25" stroke-miterlimit="10"/>
<path d="M118.04 85.6L118.08 82.8L118.45 53.5" stroke="#BDBDBD" stroke-width="0.25" stroke-miterlimit="10"/>
<path d="M120.04 85.57L120.07 83.52L120.45 53.5" stroke="#BDBDBD" stroke-width="0.25" stroke-miterlimit="10"/>
<path d="M122.01 85.5L122.02 84.23L122.42 52.79" stroke="#BDBDBD" stroke-width="0.25" stroke-miterlimit="10"/>
<path d="M124.01 84.89L124.35 58.42L124.42 52.6" stroke="#BDBDBD" stroke-width="0.25" stroke-miterlimit="10"/>
<path d="M126.08 80.37V80.34L126.35 59.42L126.44 52.42" stroke="#BDBDBD" stroke-width="0.25" stroke-miterlimit="10"/>
<path d="M45.95 54.98V76.35V77.19" stroke="#BDBDBD" stroke-width="0.25" stroke-miterlimit="10"/>
<path d="M47.95 50.88V76.24V78.1" stroke="#BDBDBD" stroke-width="0.25" stroke-miterlimit="10"/>
<path d="M49.95 51.67V76.12V79.02" stroke="#BDBDBD" stroke-width="0.25" stroke-miterlimit="10"/>
<path d="M51.95 79.94V76.01V52.47" stroke="#BDBDBD" stroke-width="0.25" stroke-miterlimit="10"/>
<path d="M53.95 53.26V75.89V80.85" stroke="#BDBDBD" stroke-width="0.25" stroke-miterlimit="10"/>
<path d="M55.95 81.77V75.78V54.05" stroke="#BDBDBD" stroke-width="0.25" stroke-miterlimit="10"/>
<path d="M57.95 54.84V75.66V82.68" stroke="#BDBDBD" stroke-width="0.25" stroke-miterlimit="10"/>
<path d="M59.95 55.63V75.55V83.6" stroke="#BDBDBD" stroke-width="0.25" stroke-miterlimit="10"/>
<path d="M61.95 56.42V75.43V84.52" stroke="#BDBDBD" stroke-width="0.25" stroke-miterlimit="10"/>
<path d="M63.95 85.43V75.32V61.21" stroke="#BDBDBD" stroke-width="0.25" stroke-miterlimit="10"/>
<path d="M52.9598 48.69L52.8398 52.82" stroke="#BDBDBD" stroke-width="0.25" stroke-miterlimit="10"/>
<path d="M56.9698 48.21L56.7998 54.39" stroke="#BDBDBD" stroke-width="0.25" stroke-miterlimit="10"/>
<path d="M60.99 47.74L60.76 55.95" stroke="#BDBDBD" stroke-width="0.25" stroke-miterlimit="10"/>
<path d="M65 47.25L64.71 57.51" stroke="#BDBDBD" stroke-width="0.25" stroke-miterlimit="10"/>
<path d="M69.01 46.77V46.78L68.71 57.74" stroke="#BDBDBD" stroke-width="0.25" stroke-miterlimit="10"/>
<path d="M73.03 46.3L72.72 57.37" stroke="#BDBDBD" stroke-width="0.25" stroke-miterlimit="10"/>
<path d="M77.04 45.82L76.73 57" stroke="#BDBDBD" stroke-width="0.25" stroke-miterlimit="10"/>
<path d="M81.05 45.34L80.74 56.63" stroke="#BDBDBD" stroke-width="0.25" stroke-miterlimit="10"/>
<path d="M85.07 44.86L84.75 56.26" stroke="#BDBDBD" stroke-width="0.25" stroke-miterlimit="10"/>
<path d="M89.08 44.38L88.76 55.9" stroke="#BDBDBD" stroke-width="0.25" stroke-miterlimit="10"/>
<path d="M93.09 43.9L92.77 55.53" stroke="#BDBDBD" stroke-width="0.25" stroke-miterlimit="10"/>
<path d="M73.09 57.34V60.32C73.09 61.38 72.24 62.23 71.18 62.23H66.98C66.63 62.23 66.28 62.19 65.95 62.1V58L68.4 57.77L68.71 57.74L70.4 57.59L72.4 57.4L72.72 57.37L73.09 57.34Z" stroke="#BDBDBD" stroke-miterlimit="10"/>
<path d="M62.4898 59.49H62.4498L61.9498 59.54L59.9498 59.71L57.9498 59.89L55.9498 60.07L53.9498 60.24L51.9498 60.42L49.9498 60.59L47.9498 60.77L45.9498 60.95L44.4498 61.08L44.1998 61.1C43.8798 61.13 43.8198 61.56 44.1098 61.68L44.4498 61.82L45.9498 62.44L47.9498 63.27L49.9498 64.1L51.9498 64.94L53.9498 65.77L55.9498 66.6L57.9498 67.43L59.9498 68.26L61.9498 69.09L63.9498 69.92L65.9498 70.75L66.3398 70.91C66.3398 70.91 66.4198 70.93 66.4698 70.93L68.2298 70.85L70.2298 70.75L72.2298 70.66L74.2298 70.56L76.2298 70.47L78.2298 70.37L80.2398 70.28L82.2398 70.18L84.2398 70.09L86.2398 69.99L88.2398 69.9L90.2398 69.8L92.2398 69.71L94.2498 69.61H94.3898L96.2498 69.52L98.2498 69.42L100.25 69.33L102.25 69.23L104.25 69.14L106.25 69.04L108.25 68.95L110.26 68.85L112.26 68.76L114.26 68.66L116.26 68.57L118.26 68.47L120.26 68.38L122.22 68.29L124.22 68.19L126.24 68.1L128.28 68" stroke="#BDBDBD" stroke-miterlimit="10"/>
<path d="M73.0898 58.56L74.3798 58.44L76.3898 58.27L78.3898 58.09L80.3898 57.91L82.3898 57.74L84.3898 57.56L86.3998 57.39L88.3998 57.21L90.3998 57.03L92.3998 56.86L94.4099 56.68L96.0398 56.54L96.4099 56.5L96.6898 56.48" stroke="#BDBDBD" stroke-miterlimit="10"/>
<path d="M98.8899 54.96L102.12 36.12V36.11" stroke="#BDBDBD" stroke-width="0.25" stroke-miterlimit="10"/>
<path d="M104.2 36.6L101.09 54.76" stroke="#BDBDBD" stroke-width="0.25" stroke-miterlimit="10"/>
<path d="M106.29 37.08L103.3 54.55" stroke="#BDBDBD" stroke-width="0.25" stroke-miterlimit="10"/>
<path d="M108.38 37.56L105.5 54.35" stroke="#BDBDBD" stroke-width="0.25" stroke-miterlimit="10"/>
<path d="M110.47 38.05L107.71 54.15" stroke="#BDBDBD" stroke-width="0.25" stroke-miterlimit="10"/>
<path d="M112.56 38.53L109.92 53.94" stroke="#BDBDBD" stroke-width="0.25" stroke-miterlimit="10"/>
<path d="M116.74 39.5L114.33 53.53" stroke="#BDBDBD" stroke-width="0.25" stroke-miterlimit="10"/>
<path d="M118.82 39.99L116.54 53.33L116.45 53.86" stroke="#BDBDBD" stroke-width="0.25" stroke-miterlimit="10"/>
<path d="M120.91 40.47L118.74 53.13" stroke="#BDBDBD" stroke-width="0.25" stroke-miterlimit="10"/>
<path d="M118.43 54.94V54.93" stroke="#BDBDBD" stroke-width="0.25" stroke-miterlimit="10"/>
<path d="M120.42 56.03V56.02" stroke="#BDBDBD" stroke-width="0.25" stroke-miterlimit="10"/>
<path d="M123 40.96L120.95 52.92" stroke="#BDBDBD" stroke-width="0.25" stroke-miterlimit="10"/>
<path d="M125.09 41.45L123.16 52.72" stroke="#BDBDBD" stroke-width="0.25" stroke-miterlimit="10"/>
<path d="M127.17 41.95L125.36 52.52" stroke="#BDBDBD" stroke-width="0.25" stroke-miterlimit="10"/>
<path d="M129.26 42.45L127.57 52.31V52.32" stroke="#BDBDBD" stroke-width="0.25" stroke-miterlimit="10"/>
<path d="M93.96 74.05C93.96 74.05 93.96 74.02 93.95 74" stroke="#BDBDBD" stroke-width="2" stroke-miterlimit="10"/>
<path d="M124.88 84.27V84.26" stroke="#BDBDBD" stroke-width="2" stroke-miterlimit="10"/>
<path d="M143.45 159.5C142.61 160.25 141.24 160.41 139.67 160C139.42 159.86 139.15 159.68 138.89 159.45C137.27 158 136.06 155.88 135.33 154.37C134.83 153.31 134.56 152.56 134.56 152.56C134.19 151.6 133.74 150.69 133.26 149.84L141.3 147.87C142.32 149.48 143.03 150.73 143.5 151.81C144.21 153.37 144.43 154.53 144.45 155.78C144.47 156.94 144.51 158.56 143.45 159.5Z" fill="#BDBDBD" stroke="#BDBDBD" stroke-miterlimit="10"/>
<path d="M133.26 149.84L130.66 150.47L130.02 150.63" stroke="#BDBDBD" stroke-miterlimit="10"/>
<path d="M135.86 124.68L119.81 117.07L102.78 109" stroke="#BDBDBD" stroke-miterlimit="10"/>
<path d="M100.2 124.02C103.41 125.57 108.33 128.44 113.6 131.67C114.91 132.47 116.23 133.29 117.56 134.12C118.19 134.51 118.83 134.91 119.46 135.32C121.42 136.55 123.36 137.78 125.22 138.97C127.25 140.27 129.17 141.51 130.89 142.64C135.6 145.7 138.86 147.87 138.86 147.87" stroke="#BDBDBD" stroke-miterlimit="10"/>
<path d="M60.78 151.41L116.98 144.38L130.89 142.64" stroke="#BDBDBD" stroke-miterlimit="10"/>
<path d="M55.6899 147.67L117.15 139.98L125.22 138.97" stroke="#BDBDBD" stroke-miterlimit="10"/>
<path d="M119.46 135.32L117.44 135.57L97.6701 138.04L50.6101 143.93" stroke="#BDBDBD" stroke-miterlimit="10"/>
<path d="M113.6 131.67L93.65 134.17L48.47 139.83" stroke="#BDBDBD" stroke-miterlimit="10"/>
</svg>
