<svg width="48" height="48" viewBox="0 0 48 48" fill="none" xmlns="http://www.w3.org/2000/svg">
<path d="M32 34.5H36C37.1935 34.5 38.3381 34.0259 39.182 33.182C40.0259 32.3381 40.5 31.1935 40.5 30V12C40.5 10.8065 40.0259 9.66193 39.182 8.81802C38.3381 7.97411 37.1935 7.5 36 7.5H12C10.8065 7.5 9.66193 7.97411 8.81802 8.81802C7.97411 9.66193 7.5 10.8065 7.5 12V30C7.5 31.1935 7.97411 32.3381 8.81802 33.182C9.66193 34.0259 10.8065 34.5 12 34.5H24C25.1935 34.5 26.3381 34.9741 27.182 35.818C28.0259 36.6619 28.5 37.8065 28.5 39V42M30 25.5H15M33 16.5H15" stroke="black" stroke-width="3"/>
</svg>
