<?xml version="1.0" encoding="UTF-8"?>
<svg id="pause" xmlns="http://www.w3.org/2000/svg" viewBox="0 0 194 194">
  <defs>
    <style>
      .cls-1, .cls-2, .cls-3, .cls-4, .cls-5, .cls-6, .cls-7, .cls-8, .cls-9, .cls-10, .cls-11, .cls-12, .cls-13, .cls-14 {
        stroke-miterlimit: 10;
      }

      .cls-1, .cls-2, .cls-8, .cls-9, .cls-15 {
        fill: none;
      }

      .cls-1, .cls-9, .cls-15, .cls-13, .cls-14 {
        stroke: #231f20;
      }

      .cls-2, .cls-3, .cls-4, .cls-6, .cls-7, .cls-8, .cls-9, .cls-10, .cls-12, .cls-13, .cls-14 {
        stroke-width: .5px;
      }

      .cls-2, .cls-6 {
        stroke: #000;
      }

      .cls-2, .cls-15, .cls-12 {
        stroke-linecap: round;
      }

      .cls-3 {
        fill: #666158;
      }

      .cls-3, .cls-4, .cls-5, .cls-7, .cls-8, .cls-10, .cls-11, .cls-12 {
        stroke: #532d20;
      }

      .cls-16 {
        fill: #231f20;
      }

      .cls-4 {
        fill: #cdc0ad;
      }

      .cls-5 {
        fill: #fff;
        stroke-width: .05px;
      }

      .cls-7 {
        fill: #aa8675;
      }

      .cls-10, .cls-12, .cls-14 {
        fill: #eeece5;
      }

      .cls-15 {
        stroke-linejoin: round;
      }

      .cls-11 {
        fill: #532d20;
        stroke-width: .08px;
      }

      .cls-17 {
        fill: #939598;
      }
    </style>
  </defs>
  <g id="hanger">
    <path class="cls-16" d="M84.34,167c1.44,0,2.61.98,2.61,2.18v4.13c0,1.2-1.17,2.18-2.61,2.18h-38.78c-1.44,0-2.61-.98-2.61-2.18v-4.13c0-1.2,1.17-2.18,2.61-2.18h38.78M84.34,166.5h-38.78c-1.71,0-3.11,1.21-3.11,2.68v4.13c0,1.48,1.4,2.68,3.11,2.68h38.78c1.71,0,3.11-1.21,3.11-2.68v-4.13c0-1.48-1.4-2.68-3.11-2.68h0Z"/>
    <path class="cls-13" d="M71.45,150.41v16.09h-13v-16.09c0-1.61,1.3-2.91,2.91-2.91h7.18c1.61,0,2.91,1.3,2.91,2.91Z"/>
    <path class="cls-15" d="M65.93,147.5l-.42-120.18c-.13,3.04-.1,6.28-.06,9.8.38,36.79-.4,73.6.4,110.38"/>
    <g>
      <circle class="cls-16" cx="97.95" cy="62" r="1.5"/>
      <path class="cls-16" d="M97.95,61c.55,0,1,.45,1,1s-.45,1-1,1-1-.45-1-1,.45-1,1-1M97.95,60c-1.1,0-2,.9-2,2s.9,2,2,2,2-.9,2-2-.9-2-2-2h0Z"/>
    </g>
    <g>
      <circle class="cls-16" cx="103.57" cy="60.75" r="1.5"/>
      <path class="cls-16" d="M103.57,59.5c.69,0,1.25.56,1.25,1.25s-.56,1.25-1.25,1.25-1.25-.56-1.25-1.25.56-1.25,1.25-1.25M103.57,59c-.97,0-1.75.78-1.75,1.75s.78,1.75,1.75,1.75,1.75-.78,1.75-1.75-.78-1.75-1.75-1.75h0Z"/>
    </g>
    <path class="cls-1" d="M65.51,35.14c3.34-12,16.56-19.88,30.36-14.32,5.03,2.02,9.08,6.03,11.13,11.04,4.75,11.63-.04,22.84-8.8,28.16h-.01c-.58.49-1.16.99-1.74,1.48"/>
    <line class="cls-15" x1="97.95" y1="62" x2="103.57" y2="60.75"/>
  </g>
  <path class="cls-14" d="M102.86,81.33c-.25,1.01-.77,3.17-1.16,5.38h0c-.25,1.42-.44,2.84-.47,4-.76,1.82-1.36,3.63-1.36,4.84v34.82c-.42.01-.8-.01-1.12-.04.05-3.97.48-37.55-.3-38.39-.64-3.44-3.54-6.77-3.97-7.63-.17-.33.04-.8.37-1.27.55-.78,1.43-1.59,1.43-1.87,0-.22-.36-.65-.45-1.35-.03-.24-.02-.3-.06-.56-.01-.08-.14-.93-.39-1.24-.03-.04-.07-.07-.11-.1-.02-.26-.26-3.16-.41-5.59.41-.16.7-.33.7-.33h0c1.63-.14,5.65-.39,7.83.05l-.82,5.97s-1.35.92,0,2.48c0,0-.23.11.29.83Z"/>
  <g id="cloth">
    <path class="cls-4" d="M116.92,100l.89,26.68s-3.15,5.84-16.64,4.94v-35.07c0-1.21.6-3.02,1.36-4.84,1.22-2.91,2.86-5.85,3.14-6.4.45-.89,0-1.34-.45-1.79-.09-.09-.17-.18-.25-.26-.38-.39-.63-.69-.81-.93-.52-.72-.29-.83-.29-.83.67-.49.73-1.61.72-2.16l3.33,1.48.43-8.7c1.29.79,2.87,1.67,4.51,2.4,3.92,1.75,4.89,3.07,6.18,4.37-4.19,6.37-2.12,21.11-2.12,21.11Z"/>
    <path class="cls-4" d="M108.35,72.12l-.43,8.7-3.33-1.48-.72-.32.82-5.97.36-2.62.05-.4h.12s1.26.95,3.13,2.09Z"/>
    <path class="cls-4" d="M127.25,88.91s-9.41,6.44-10.33,11.09c0,0-2.07-14.74,2.12-21.11.03.05.08.09.12.13,1.35,1.35,8.09,9.89,8.09,9.89Z"/>
    <path class="cls-6" d="M105.05,70.43l-.36,2.62c-.26-.06-.53-.16-.82-.31-.9-.46-1-.7-3.17-.86-2.11-.16-3.74,1.04-3.84,1.11-.45.04-.72.06-.72.06-.07-1.2-.12-2.24-.11-2.74.1-.1.18-.19.26-.28.43-.48.76-.96.99-1.35.34-.56.93-.9,1.58-.9h3.4c.68,0,1.3.38,1.63.98.21.38.48.84.82,1.27.1.13.21.27.34.4Z"/>
    <path class="cls-3" d="M104.59,79.34c0,.55-.05,1.67-.72,2.16-1.35-1.56,0-2.48,0-2.48l.72.32Z"/>
    <path class="cls-3" d="M104.97,83.26c-.42.9-1.28,2.79-1.97,4.45.39-2.21.91-4.37,1.16-5.38.18.24.43.54.81.93Z"/>
    <path class="cls-4" d="M105.67,85.31c-.28.55-1.92,3.49-3.14,6.4.03-1.16.22-2.58.47-3.99h0c.69-1.67,1.55-3.56,1.97-4.46.08.08.16.17.25.26.45.45.9.9.45,1.79Z"/>
    <path class="cls-8" d="M102.53,91.73v-.02"/>
    <path class="cls-4" d="M84.51,99.71c-1.83-5.84-10.76-10.35-10.76-10.35l8.99-10.79c3.97,6.17,1.85,20.56,1.77,21.14Z"/>
    <line class="cls-8" x1="105.1" y1="70.03" x2="104.71" y2="70.03"/>
    <path class="cls-4" d="M100.05,131.33v.39s-13.26.35-16.41-5.04c0-2.7.86-26.96.86-26.96h.01c.08-.59,2.2-14.98-1.77-21.15,0,0,1.35-2.25,2.7-2.7.95-.32,4.65-1.98,7.59-3.72-.43,2.59-.87,5.18-1.3,7.77.02,0,1.24-.56,2.48-.9.51.39,1.14,1.02,1.57,1.96.52,1.15.51,2.25.37,3.06-.33.47-.54.94-.37,1.27.43.86,3.33,4.19,3.97,7.63.78.84.35,34.42.3,38.39Z"/>
    <path class="cls-4" d="M96.57,78.92c-.44-.32-1.4-.17-2.36.1-1.24.34-2.46.9-2.48.9.43-2.59.87-5.18,1.3-7.77,1.22-.72,2.31-1.46,3.02-2.12-.01.04-.02.14-.02.28-.01.5.04,1.54.11,2.74.01.09.01.18.02.28.15,2.43.39,5.33.41,5.59Z"/>
    <line class="cls-8" x1="96.29" y1="70.03" x2="96.05" y2="70.03"/>
    <path class="cls-8" d="M99.83,93.41c-.02-.16-.05-.31-.08-.47"/>
    <path class="cls-4" d="M96.15,84.04c.14-.81.15-1.91-.37-3.06-.43-.94-1.06-1.57-1.57-1.96.96-.27,1.92-.42,2.36-.1.04.03.08.06.11.1.25.31.38,1.16.39,1.24.04.26.03.32.06.56.09.7.45,1.13.45,1.35,0,.28-.88,1.09-1.43,1.87Z"/>
    <path class="cls-8" d="M96.57,78.94v-.02"/>
    <path class="cls-10" d="M127.25,88.91s-1.32,8.24-10.33,11.09c.92-4.65,10.33-11.09,10.33-11.09Z"/>
    <path class="cls-12" d="M84.51,99.71h-.01c-8.81-1.28-10.67-9.94-10.75-10.34h0s8.93,4.5,10.76,10.34Z"/>
    <path class="cls-2" d="M99.83,63.94c-.54-.31-.9-.89-.9-1.56,0-.99.8-1.8,1.8-1.8s1.8.8,1.8,1.8c0,.08,0,.15-.01.22"/>
    <path class="cls-2" d="M100.7,67.78c0-.95.08-.9.93-.9.9,0,.9-.9.9-.9v-3.15s-.01-.22-.01-.22"/>
  </g>
  <g id="cloth-2" data-name="cloth">
    <path class="cls-4" d="M115.92,100l.89,26.68s-3.15,5.84-16.64,4.94v-35.07c0-1.21.6-3.02,1.36-4.84,1.22-2.91,2.86-5.85,3.14-6.4.45-.89,0-1.34-.45-1.79-.09-.09-.17-.18-.25-.26-.38-.39-.63-.69-.81-.93-.52-.72-.29-.83-.29-.83.67-.49.73-1.61.72-2.16l3.33,1.48.43-8.7c1.29.79,2.87,1.67,4.51,2.4,3.92,1.75,4.89,3.07,6.18,4.37-4.19,6.37-2.12,21.11-2.12,21.11Z"/>
    <path class="cls-4" d="M107.35,72.12l-.43,8.7-3.33-1.48-.72-.32.82-5.97.36-2.62.05-.4h.12s1.26.95,3.13,2.09Z"/>
    <path class="cls-4" d="M126.25,88.91s-9.41,6.44-10.33,11.09c0,0-2.07-14.74,2.12-21.11.03.05.08.09.12.13,1.35,1.35,8.09,9.89,8.09,9.89Z"/>
    <path class="cls-6" d="M104.05,70.43l-.36,2.62c-.26-.06-.53-.16-.82-.31-.9-.46-1-.7-3.17-.86-2.11-.16-3.74,1.04-3.84,1.11-.45.04-.72.06-.72.06-.07-1.2-.12-2.24-.11-2.74.1-.1.18-.19.26-.28.43-.48.76-.96.99-1.35.34-.56.93-.9,1.58-.9h3.4c.68,0,1.3.38,1.63.98.21.38.48.84.82,1.27.1.13.21.27.34.4Z"/>
    <path class="cls-3" d="M103.59,79.34c0,.55-.05,1.67-.72,2.16-1.35-1.56,0-2.48,0-2.48l.72.32Z"/>
    <path class="cls-3" d="M103.97,83.26c-.42.9-1.28,2.79-1.97,4.45.39-2.21.91-4.37,1.16-5.38.18.24.43.54.81.93Z"/>
    <path class="cls-4" d="M104.67,85.31c-.28.55-1.92,3.49-3.14,6.4.03-1.16.22-2.58.47-3.99h0c.69-1.67,1.55-3.56,1.97-4.46.08.08.16.17.25.26.45.45.9.9.45,1.79Z"/>
    <path class="cls-8" d="M101.53,91.73v-.02"/>
    <path class="cls-4" d="M83.51,99.71c-1.83-5.84-10.76-10.35-10.76-10.35l8.99-10.79c3.97,6.17,1.85,20.56,1.77,21.14Z"/>
    <line class="cls-8" x1="104.1" y1="70.03" x2="103.71" y2="70.03"/>
    <path class="cls-4" d="M99.05,131.33v.39s-13.26.35-16.41-5.04c0-2.7.86-26.96.86-26.96h.01c.08-.59,2.2-14.98-1.77-21.15,0,0,1.35-2.25,2.7-2.7.95-.32,4.65-1.98,7.59-3.72-.43,2.59-.87,5.18-1.3,7.77.02,0,1.24-.56,2.48-.9.51.39,1.14,1.02,1.57,1.96.52,1.15.51,2.25.37,3.06-.33.47-.54.94-.37,1.27.43.86,3.33,4.19,3.97,7.63.78.84.35,34.42.3,38.39Z"/>
    <path class="cls-4" d="M95.57,78.92c-.44-.32-1.4-.17-2.36.1-1.24.34-2.46.9-2.48.9.43-2.59.87-5.18,1.3-7.77,1.22-.72,2.31-1.46,3.02-2.12-.01.04-.02.14-.02.28-.01.5.04,1.54.11,2.74.01.09.01.18.02.28.15,2.43.39,5.33.41,5.59Z"/>
    <line class="cls-8" x1="95.29" y1="70.03" x2="95.05" y2="70.03"/>
    <path class="cls-8" d="M98.83,93.41c-.02-.16-.05-.31-.08-.47"/>
    <path class="cls-4" d="M95.15,84.04c.14-.81.15-1.91-.37-3.06-.43-.94-1.06-1.57-1.57-1.96.96-.27,1.92-.42,2.36-.1.04.03.08.06.11.1.25.31.38,1.16.39,1.24.04.26.03.32.06.56.09.7.45,1.13.45,1.35,0,.28-.88,1.09-1.43,1.87Z"/>
    <path class="cls-8" d="M95.57,78.94v-.02"/>
    <path class="cls-10" d="M126.25,88.91s-1.32,8.24-10.33,11.09c.92-4.65,10.33-11.09,10.33-11.09Z"/>
    <path class="cls-12" d="M83.51,99.71h-.01c-8.81-1.28-10.67-9.94-10.75-10.34h0s8.93,4.5,10.76,10.34Z"/>
    <path class="cls-2" d="M98.83,63.94c-.54-.31-.9-.89-.9-1.56,0-.99.8-1.8,1.8-1.8s1.8.8,1.8,1.8c0,.08,0,.15-.01.22"/>
    <path class="cls-2" d="M99.7,67.78c0-.95.08-.9.93-.9.9,0,.9-.9.9-.9v-3.15s-.01-.22-.01-.22"/>
  </g>
  <g id="cloth-3" data-name="cloth">
    <path class="cls-4" d="M114.92,100l.89,26.68s-3.15,5.84-16.64,4.94v-35.07c0-1.21.6-3.02,1.36-4.84,1.22-2.91,2.86-5.85,3.14-6.4.45-.89,0-1.34-.45-1.79-.09-.09-.17-.18-.25-.26-.38-.39-.63-.69-.81-.93-.52-.72-.29-.83-.29-.83.67-.49.73-1.61.72-2.16l3.33,1.48.43-8.7c1.29.79,2.87,1.67,4.51,2.4,3.92,1.75,4.89,3.07,6.18,4.37-4.19,6.37-2.12,21.11-2.12,21.11Z"/>
    <path class="cls-4" d="M106.35,72.12l-.43,8.7-3.33-1.48-.72-.32.82-5.97.36-2.62.05-.4h.12s1.26.95,3.13,2.09Z"/>
    <path class="cls-4" d="M125.25,88.91s-9.41,6.44-10.33,11.09c0,0-2.07-14.74,2.12-21.11.03.05.08.09.12.13,1.35,1.35,8.09,9.89,8.09,9.89Z"/>
    <path class="cls-6" d="M103.05,70.43l-.36,2.62c-.26-.06-.53-.16-.82-.31-.9-.46-1-.7-3.17-.86-2.11-.16-3.74,1.04-3.84,1.11-.45.04-.72.06-.72.06-.07-1.2-.12-2.24-.11-2.74.1-.1.18-.19.26-.28.43-.48.76-.96.99-1.35.34-.56.93-.9,1.58-.9h3.4c.68,0,1.3.38,1.63.98.21.38.48.84.82,1.27.1.13.21.27.34.4Z"/>
    <path class="cls-3" d="M102.59,79.34c0,.55-.05,1.67-.72,2.16-1.35-1.56,0-2.48,0-2.48l.72.32Z"/>
    <path class="cls-3" d="M102.97,83.26c-.42.9-1.28,2.79-1.97,4.45.39-2.21.91-4.37,1.16-5.38.18.24.43.54.81.93Z"/>
    <path class="cls-4" d="M103.67,85.31c-.28.55-1.92,3.49-3.14,6.4.03-1.16.22-2.58.47-3.99h0c.69-1.67,1.55-3.56,1.97-4.46.08.08.16.17.25.26.45.45.9.9.45,1.79Z"/>
    <path class="cls-8" d="M100.53,91.73v-.02"/>
    <path class="cls-4" d="M82.51,99.71c-1.83-5.84-10.76-10.35-10.76-10.35l8.99-10.79c3.97,6.17,1.85,20.56,1.77,21.14Z"/>
    <line class="cls-8" x1="103.1" y1="70.03" x2="102.71" y2="70.03"/>
    <path class="cls-4" d="M98.05,131.33v.39s-13.26.35-16.41-5.04c0-2.7.86-26.96.86-26.96h.01c.08-.59,2.2-14.98-1.77-21.15,0,0,1.35-2.25,2.7-2.7.95-.32,4.65-1.98,7.59-3.72-.43,2.59-.87,5.18-1.3,7.77.02,0,1.24-.56,2.48-.9.51.39,1.14,1.02,1.57,1.96.52,1.15.51,2.25.37,3.06-.33.47-.54.94-.37,1.27.43.86,3.33,4.19,3.97,7.63.78.84.35,34.42.3,38.39Z"/>
    <path class="cls-4" d="M94.57,78.92c-.44-.32-1.4-.17-2.36.1-1.24.34-2.46.9-2.48.9.43-2.59.87-5.18,1.3-7.77,1.22-.72,2.31-1.46,3.02-2.12-.01.04-.02.14-.02.28-.01.5.04,1.54.11,2.74.01.09.01.18.02.28.15,2.43.39,5.33.41,5.59Z"/>
    <line class="cls-8" x1="94.29" y1="70.03" x2="94.05" y2="70.03"/>
    <path class="cls-8" d="M97.83,93.41c-.02-.16-.05-.31-.08-.47"/>
    <path class="cls-4" d="M94.15,84.04c.14-.81.15-1.91-.37-3.06-.43-.94-1.06-1.57-1.57-1.96.96-.27,1.92-.42,2.36-.1.04.03.08.06.11.1.25.31.38,1.16.39,1.24.04.26.03.32.06.56.09.7.45,1.13.45,1.35,0,.28-.88,1.09-1.43,1.87Z"/>
    <path class="cls-8" d="M94.57,78.94v-.02"/>
    <path class="cls-10" d="M125.25,88.91s-1.32,8.24-10.33,11.09c.92-4.65,10.33-11.09,10.33-11.09Z"/>
    <path class="cls-12" d="M82.51,99.71h-.01c-8.81-1.28-10.67-9.94-10.75-10.34h0s8.93,4.5,10.76,10.34Z"/>
    <path class="cls-2" d="M97.83,63.94c-.54-.31-.9-.89-.9-1.56,0-.99.8-1.8,1.8-1.8s1.8.8,1.8,1.8c0,.08,0,.15-.01.22"/>
    <path class="cls-2" d="M98.7,67.78c0-.95.08-.9.93-.9.9,0,.9-.9.9-.9v-3.15s-.01-.22-.01-.22"/>
  </g>
  <path class="cls-8" d="M140.57,161.19s-1.59.21-3.25,1.61c-1.66,1.4-3.39,4.01-3.68,8.81-2.76-.94-3.77-1.64-4.13-2.06.07,0,.14-.01.22-.02.7-2.08,1.39-4.17,2.08-6.25.43-.49,1.11-1.15,2.09-1.67,2.17-1.16,4.33-.81,6.26-.49.14.03.28.05.41.07Z"/>
  <path class="cls-7" d="M141.84,173.23c-1.09-.22-2.35-.49-3.77-.78-.17-.03-2.09-.42-2.09-.42l-.09.05c-.11.05-.21.1-.31.14-.73-.21-1.37-.42-1.94-.61.29-4.8,2.02-7.41,3.68-8.81,1.66-1.4,3.25-1.61,3.25-1.61.33.06.66.12.99.2.01,0,.03,0,.05.02.06.02.15.05.27.11h0c.93.51,3.39,2.75-.04,11.71Z"/>
  <path class="cls-7" d="M135.58,172.22c-5.72,2.57-9.6,1.07-9.6,1.07-1.32-.51-3.07-1.61-2.92-2.51.06-.38.46-.66.83-.83,1.87-.13,3.75-.27,5.62-.4.36.42,1.37,1.12,4.13,2.06.57.19,1.21.4,1.94.61Z"/>
  <path class="cls-8" d="M148.08,169.95c-.11.68.08.79,0,1.67-.05.49-.13,1.25-.42,1.67-.62.88-2.49.61-5.82-.06,3.43-8.96.97-11.2.04-11.7h0c-.12-.07-.21-.1-.27-.12.09.02.17.04.26.07,3,.74,5.74,2.39,6.62,4.3.25.52.57,1.24.42,2.08-.16.87-.68,1.05-.83,2.09Z"/>
  <path class="cls-8" d="M143.28,173.18s-.01.04-.02.06"/>
  <path class="cls-9" d="M141.56,161.39h0"/>
  <path class="cls-8" d="M141.88,161.52s0-.02-.01-.04c-.03-.16-.18-.7-.88-.7-.62,0-.78.22-.83.34-.01.04-.01.07-.01.07"/>
  <g>
    <path class="cls-11" d="M108.41,119.19h0s-.01.05-.03.07c-.54.51-.89,2.66-1.02,6.09,0,.02,0,.04,0,.06h0c0,.06,0,.12,0,.18,0,.01,0,.02,0,.03,0,.05,0,.1,0,.15,0,.16,0,.32-.01.48,0,.01-.01.02-.02.02s-.02-.01-.02-.02c0-.16,0-.32-.01-.48,0-.05,0-.1,0-.16v-.02c0-.07,0-.14,0-.21,0-.01,0-.02,0-.03-.13-3.44-.48-5.59-1.02-6.1-.02-.02-.03-.04-.03-.07h0s.03-.08.07-.09c.53-.17.88-.82.99-1.84,0-.02.02-.04.04-.04.02,0,.03.02.04.04.11,1.02.46,1.67.99,1.84.04.01.07.05.07.09Z"/>
    <path class="cls-11" d="M111.94,119.01c-.6.84-.76,1.56-.47,2.04.02.03.02.07,0,.1h0s-.04.03-.06.03c-.62,0-1.93.98-3.77,2.8-.06.06-.13.13-.19.19l-.04.04s-.01.01-.02.02c-.12.12-.24.24-.36.37,0,0-.01.01-.02.02-.01,0-.02,0-.04,0-.04,0-.08-.04-.08-.08,0-.02,0-.03.02-.05.06-.08.12-.15.18-.22.06-.08.13-.16.19-.24l.02-.03s.03-.04.04-.06c1.66-2.11,2.52-3.58,2.45-4.21,0-.03,0-.05.03-.07h0s.06-.03.09-.02c.51.24,1.2-.01,1.97-.7.02-.01.04-.01.05,0,0,0,.01.02.01.03,0,0,0,.02,0,.02Z"/>
    <path class="cls-11" d="M107.64,124.63s-.03,0-.04,0c0,0-.02-.01-.02-.02-.12-.13-.24-.25-.36-.37,0,0-.01-.01-.02-.02-.01-.01-.03-.03-.04-.04-.06-.06-.13-.13-.19-.19-1.84-1.82-3.15-2.8-3.77-2.8-.02,0-.05-.01-.06-.03h0s-.03-.07,0-.1c.3-.48.13-1.2-.47-2.05-.01-.02,0-.04.01-.05.01,0,.03,0,.04,0,.77.7,1.47.95,1.98.71.03-.01.07,0,.09.01h0s.03.05.03.07c-.07.63.79,2.1,2.45,4.21.01.02.03.04.04.06l.02.03c.06.08.13.16.19.24.06.07.12.15.18.22.03.03.02.08-.01.11-.01.01-.03.02-.05.02Z"/>
    <path class="cls-11" d="M107.34,125.77c0,.16,0,.32-.01.48,0,.01-.01.02-.02.02h0s-.02-.01-.02-.02c0-.16,0-.32-.01-.48h.07Z"/>
  </g>
  <g>
    <path class="cls-5" d="M104.45,76.28h0s0,0,0,0c-.08.07-.13.37-.14.85,0,0,0,0,0,0h0s0,.02,0,.03c0,0,0,0,0,0,0,0,0,.01,0,.02,0,.02,0,.04,0,.07,0,0,0,0,0,0s0,0,0,0c0-.02,0-.05,0-.07,0,0,0-.01,0-.02h0s0-.02,0-.03c0,0,0,0,0,0-.02-.48-.07-.78-.14-.86,0,0,0,0,0,0h0s0-.01,0-.01c.07-.02.12-.11.14-.26,0,0,0,0,0,0,0,0,0,0,0,0,.02.14.06.23.14.26,0,0,0,0,0,.01Z"/>
    <path class="cls-5" d="M104.95,76.26c-.08.12-.11.22-.07.29,0,0,0,.01,0,.01h0s0,0,0,0c-.09,0-.27.14-.53.39,0,0-.02.02-.03.03h0s0,0,0,0c-.02.02-.03.03-.05.05,0,0,0,0,0,0,0,0,0,0,0,0,0,0-.01,0-.01-.01,0,0,0,0,0,0,0-.01.02-.02.03-.03,0-.01.02-.02.03-.03h0s0,0,0-.01c.23-.3.35-.5.34-.59,0,0,0,0,0-.01h0s0,0,.01,0c.07.03.17,0,.28-.1,0,0,0,0,0,0,0,0,0,0,0,0,0,0,0,0,0,0Z"/>
    <path class="cls-5" d="M104.34,77.05s0,0,0,0c0,0,0,0,0,0-.02-.02-.03-.04-.05-.05,0,0,0,0,0,0,0,0,0,0,0,0,0,0-.02-.02-.03-.03-.26-.25-.44-.39-.53-.39,0,0,0,0,0,0h0s0,0,0-.01c.04-.07.02-.17-.07-.29,0,0,0,0,0,0,0,0,0,0,0,0,.11.1.21.13.28.1,0,0,0,0,.01,0h0s0,0,0,.01c0,.09.11.29.34.59,0,0,0,0,0,0h0s.02.03.03.04c0,.01.02.02.03.03,0,0,0,.01,0,.02,0,0,0,0,0,0Z"/>
    <path class="cls-5" d="M104.3,77.21s0,.04,0,.07c0,0,0,0,0,0h0s0,0,0,0c0-.02,0-.05,0-.07h.01Z"/>
  </g>
  <g id="star">
    <path class="cls-17" d="M63.89,150.62l.04.08c.1.19.28.31.49.33h.08c.16.03.23.23.1.34h0c-.18.15-.26.39-.21.61h0c.03.16-.13.28-.27.21l-.13-.06c-.17-.09-.38-.09-.56,0l-.13.06c-.14.07-.3-.05-.27-.21h0c.05-.23-.03-.47-.21-.62h0c-.13-.11-.06-.31.1-.33h.08c.21-.03.39-.16.49-.34l.04-.08c.07-.13.26-.13.33,0Z"/>
    <path class="cls-17" d="M66.72,152.09l.06.11c.1.19.28.31.49.33h.12c.16.03.23.24.1.34l-.03.02c-.18.15-.26.39-.21.61v.04c.04.15-.12.28-.26.21l-.16-.08c-.17-.09-.38-.09-.56,0l-.16.08c-.14.07-.3-.05-.27-.21v-.04c.06-.23-.02-.46-.2-.61l-.03-.02c-.13-.11-.06-.31.1-.33h.12c.21-.04.39-.16.49-.35l.06-.11c.07-.13.26-.13.33,0Z"/>
    <path class="cls-17" d="M61.89,154.62l.04.08c.1.19.28.31.49.33h.08c.16.03.23.23.1.34h0c-.18.15-.26.39-.21.61h0c.03.16-.13.28-.27.21l-.13-.06c-.17-.09-.38-.09-.56,0l-.13.06c-.14.07-.3-.05-.27-.21h0c.05-.23-.03-.47-.21-.62h0c-.13-.11-.06-.31.1-.33h.08c.21-.03.39-.16.49-.34l.04-.08c.07-.13.26-.13.33,0Z"/>
    <path class="cls-17" d="M65.89,156.62l.04.08c.1.19.28.31.49.33h.08c.16.03.23.23.1.34h0c-.18.15-.26.39-.21.61h0c.03.16-.13.28-.27.21l-.13-.06c-.17-.09-.38-.09-.56,0l-.13.06c-.14.07-.3-.05-.27-.21h0c.05-.23-.03-.47-.21-.62h0c-.13-.11-.06-.31.1-.33h.08c.21-.03.39-.16.49-.34l.04-.08c.07-.13.26-.13.33,0Z"/>
    <path class="cls-17" d="M61.89,158.62l.04.08c.1.19.28.31.49.33h.08c.16.03.23.23.1.34h0c-.18.15-.26.39-.21.61h0c.03.16-.13.28-.27.21l-.13-.06c-.17-.09-.38-.09-.56,0l-.13.06c-.14.07-.3-.05-.27-.21h0c.05-.23-.03-.47-.21-.62h0c-.13-.11-.06-.31.1-.33h.08c.21-.03.39-.16.49-.34l.04-.08c.07-.13.26-.13.33,0Z"/>
    <path class="cls-17" d="M65.68,160.44l.06.11c.1.19.28.31.49.33h.12c.16.03.23.24.1.34l-.03.02c-.18.15-.26.39-.21.61v.04c.04.15-.12.28-.26.21l-.16-.08c-.17-.09-.38-.09-.56,0l-.16.08c-.14.07-.3-.05-.27-.21v-.04c.06-.23-.02-.46-.2-.61l-.03-.02c-.13-.11-.06-.31.1-.33h.12c.21-.04.39-.16.49-.35l.06-.11c.07-.13.26-.13.33,0Z"/>
    <path class="cls-17" d="M62.89,162.62l.04.08c.1.19.28.31.49.33h.08c.16.03.23.23.1.34h0c-.18.15-.26.39-.21.61h0c.03.16-.13.28-.27.21l-.13-.06c-.17-.09-.38-.09-.56,0l-.13.06c-.14.07-.3-.05-.27-.21h0c.05-.23-.03-.47-.21-.62h0c-.13-.11-.06-.31.1-.33h.08c.21-.03.39-.16.49-.34l.04-.08c.07-.13.26-.13.33,0Z"/>
    <path class="cls-17" d="M68.81,162.53l.06.11c.1.19.28.31.49.33h.12c.16.03.23.24.1.34l-.03.02c-.18.15-.26.39-.21.61v.04c.04.15-.12.28-.26.21l-.16-.08c-.17-.09-.38-.09-.56,0l-.16.08c-.14.07-.3-.05-.27-.21v-.04c.06-.23-.02-.46-.2-.61l-.03-.02c-.13-.11-.06-.31.1-.33h.12c.21-.04.39-.16.49-.35l.06-.11c.07-.13.26-.13.33,0Z"/>
    <path class="cls-17" d="M69.85,157.31l.06.11c.1.19.28.31.49.33h.12c.16.03.23.24.1.34l-.03.02c-.18.15-.26.39-.21.61v.04c.04.15-.12.28-.26.21l-.16-.08c-.17-.09-.38-.09-.56,0l-.16.08c-.14.07-.3-.05-.27-.21v-.04c.06-.23-.02-.46-.2-.61l-.03-.02c-.13-.11-.06-.31.1-.33h.12c.21-.04.39-.16.49-.35l.06-.11c.07-.13.26-.13.33,0Z"/>
  </g>
</svg>