<svg width="32" height="32" viewBox="0 0 32 32" fill="none" xmlns="http://www.w3.org/2000/svg">
<path d="M27 10C27.552 10 28 9.552 28 9V8C28 7.448 27.552 7 27 7H26V6C26 4.343 24.657 3 23 3H9C7.343 3 6 4.343 6 6V8H4.5C4.224 8 4 8.224 4 8.5C4 8.776 4.224 9 4.5 9H6V10H4.5C4.224 10 4 10.224 4 10.5C4 10.776 4.224 11 4.5 11H6V21H4.5C4.224 21 4 21.224 4 21.5C4 21.776 4.224 22 4.5 22H6V23H4.5C4.224 23 4 23.224 4 23.5C4 23.776 4.224 24 4.5 24H6V26C6 27.657 7.343 29 9 29H23C24.657 29 26 27.657 26 26V22H27C27.552 22 28 21.552 28 21V20C28 19.448 27.552 19 27 19H26V18H27C27.552 18 28 17.552 28 17V16C28 15.448 27.552 15 27 15H26V14H27C27.552 14 28 13.552 28 13V12C28 11.448 27.552 11 27 11H26V10H27ZM26 8H27V9H26V8ZM25 26C25 27.105 24.105 28 23 28H9C7.895 28 7 27.105 7 26V6C7 4.895 7.895 4 9 4H23C24.105 4 25 4.895 25 6V26ZM27 20V21H26V20H27ZM27 16V17H26V16H27ZM27 12V13H26V12H27ZM18.17 16.062C18.809 15.39 19.147 14.427 18.938 13.386C18.702 12.207 17.723 11.252 16.539 11.046C14.645 10.717 13 12.167 13 14C13 14.801 13.319 15.524 13.83 16.062C12.708 16.622 12 17.768 12 19.021V21C12 21.552 12.448 22 13 22H19C19.552 22 20 21.552 20 21V19.022C20 17.768 19.291 16.622 18.17 16.062ZM16 12C17.103 12 18 12.897 18 14C18 15.103 17.103 16 16 16C14.897 16 14 15.103 14 14C14 12.897 14.897 12 16 12ZM19 21H13V19.415C13 18.429 13.48 17.512 14.288 16.951L14.751 16.72C15.132 16.896 15.553 17 16 17C16.447 17 16.868 16.896 17.249 16.72L17.712 16.951C18.52 17.512 19 18.429 19 19.415V21Z" fill="#000000"/>
</svg>
