<?xml version="1.0" encoding="UTF-8"?>
<svg id="pause" xmlns="http://www.w3.org/2000/svg" viewBox="0 0 24 24">
  <defs>
    <style>
      .cls-1 {
        fill: none;
        stroke: #010101;
      }
    </style>
  </defs>
  <path class="cls-1" d="M9.06,1.68l3.41,3.41,1.71,1.71M22.71,15.33l-3.41-3.41-1.71-1.71"/>
  <path class="cls-1" d="M2.07,8.67l3.41,3.41,1.71,1.71M15.72,22.32l-3.41-3.41-1.71-1.71"/>
  <path class="cls-1" d="M5.46,5.28l1.71,1.71M19.11,18.93l-1.71-1.71M13.99,13.81l-1.71-1.71-1.71-1.71"/>
  <path class="cls-1" d="M15.73,1.68l-1.71,1.71M2.07,15.33l1.71-1.71M7.19,10.21l1.71-1.71,1.71-1.71"/>
  <path class="cls-1" d="M22.71,8.67l-1.71,1.71M9.06,22.32l1.71-1.71M14.18,17.2l1.71-1.71,1.71-1.71"/>
  <path class="cls-1" d="M19.32,5.28l-3.41,3.41-1.71,1.71M5.67,18.93l3.41-3.41,1.71-1.71"/>
</svg>