<svg width="48" height="48" viewBox="0 0 48 48" fill="none" xmlns="http://www.w3.org/2000/svg">
<path d="M24 43.494L23.064 44.666C23.3298 44.8783 23.6599 44.9939 24 44.9939C24.3401 44.9939 24.6702 44.8783 24.936 44.666L24 43.494ZM36 18C36 19.84 35.394 22.162 34.352 24.724C33.322 27.262 31.908 29.924 30.404 32.41C29.0394 34.6673 27.5594 36.8529 25.97 38.958C24.58 40.786 23.524 41.954 23.064 42.322L24.936 44.666C25.726 44.038 26.982 42.582 28.358 40.772C30.0113 38.5834 31.5507 36.3111 32.97 33.964C34.53 31.388 36.022 28.582 37.13 25.854C38.23 23.15 39 20.408 39 18H36ZM24.936 42.32C24.476 41.954 23.42 40.786 22.03 38.958C20.4406 36.8529 18.9606 34.6673 17.596 32.41C16.092 29.924 14.68 27.262 13.648 24.724C12.606 22.162 12 19.842 12 18H9C9 20.408 9.77 23.15 10.868 25.854C11.978 28.582 13.472 31.388 15.028 33.964C16.588 36.54 18.228 38.912 19.642 40.772C21.018 42.582 22.274 44.038 23.064 44.666L24.936 42.32ZM12 18C12 14.8174 13.2643 11.7652 15.5147 9.51472C17.7652 7.26428 20.8174 6 24 6V3C20.0218 3 16.2064 4.58035 13.3934 7.3934C10.5804 10.2064 9 14.0218 9 18H12ZM24 6C27.1826 6 30.2348 7.26428 32.4853 9.51472C34.7357 11.7652 36 14.8174 36 18H39C39 14.0218 37.4196 10.2064 34.6066 7.3934C31.7936 4.58035 27.9782 3 24 3V6ZM29 18C29 18.6566 28.8707 19.3068 28.6194 19.9134C28.3681 20.52 27.9998 21.0712 27.5355 21.5355C27.0712 21.9998 26.52 22.3681 25.9134 22.6194C25.3068 22.8707 24.6566 23 24 23V26C26.1217 26 28.1566 25.1571 29.6569 23.6569C31.1571 22.1566 32 20.1217 32 18H29ZM24 23C22.6739 23 21.4021 22.4732 20.4645 21.5355C19.5268 20.5979 19 19.3261 19 18H16C16 20.1217 16.8429 22.1566 18.3431 23.6569C19.8434 25.1571 21.8783 26 24 26V23ZM19 18C19 16.6739 19.5268 15.4021 20.4645 14.4645C21.4021 13.5268 22.6739 13 24 13V10C21.8783 10 19.8434 10.8429 18.3431 12.3431C16.8429 13.8434 16 15.8783 16 18H19ZM24 13C25.3261 13 26.5979 13.5268 27.5355 14.4645C28.4732 15.4021 29 16.6739 29 18H32C32 15.8783 31.1571 13.8434 29.6569 12.3431C28.1566 10.8429 26.1217 10 24 10V13Z" fill="black"/>
</svg>
