<svg id="Layer_1" data-name="Layer 1" xmlns="http://www.w3.org/2000/svg" viewBox="0 0 800 800"><path d="M494,184.25h0a8,8,0,0,1-2.54,5.84C446.3,233,416.26,413.9,405.62,703c-.06,1.58-.11,3.18-.19,4.76v0c-.18,5.13-.36,10.32-.52,15.54-.05,1-.08,1.94-.1,2.93-.14,4.1-.27,8.25-.39,12.41q-.63,19.95-1.11,40.53a2,2,0,0,1-4,0q-.51-20.58-1.11-40.53c-.13-4.43-.28-8.83-.41-13.19,0-.47,0-.9,0-1.37-.19-5.85-.4-11.67-.59-17.44,0-.86-.09-1.7-.1-2.54-10.61-289.74-40.65-471-85.84-514.06a8,8,0,0,1-2.54-5.83v0a8.07,8.07,0,0,1,5.69-7.65c44.77-14.34,74.1-68.86,83.59-154.78a3.38,3.38,0,0,1,6.73,0c9.49,85.94,38.83,140.46,83.62,154.78A8.08,8.08,0,0,1,494,184.25Z"/><path d="M791.69,169.07c-50.4,71.16-64.42,131.81-39.39,172.2a7,7,0,0,1-.66,8.39h0a6.91,6.91,0,0,1-5.22,2.37c-51.94.17-162.64,82.86-317.78,236.05-5.31,5.21-10.7,10.59-16.12,16l-3.6,3.62c-.55.53-1.11,1.1-1.65,1.66q-15.07,15.1-30.72,31.1a8.35,8.35,0,0,1-2,1.53,6.55,6.55,0,0,1-3.12.83,6.47,6.47,0,0,1-4.92-10.53q7.69-9.53,15.17-18.86c5.47-6.85,10.85-13.59,16.12-20.29l2-2.47c1.27-1.61,2.52-3.19,3.76-4.81C543.26,408.07,615.81,284.39,610.26,231.33a7,7,0,0,1,2.4-6.11l.33-.29a7,7,0,0,1,7.52-1c43,19.93,101.5-1.1,166.13-59.31a3.41,3.41,0,0,1,4.52-.05,3.31,3.31,0,0,1,1.16,2.55A3.42,3.42,0,0,1,791.69,169.07Z"/><path d="M429.13,642.81A6.55,6.55,0,0,1,426,642a8.35,8.35,0,0,1-2-1.53q-15.6-16-30.72-31.1c-.54-.56-1.1-1.13-1.65-1.66-1.19-1.21-2.41-2.42-3.6-3.62-5.42-5.4-10.81-10.78-16.12-16C217,435.12,106.4,352.42,54.34,352A7.08,7.08,0,0,1,49,349.53h0a7.18,7.18,0,0,1-.61-8.43c25-40.54,10.74-101.42-40-172.79A3.29,3.29,0,0,1,13.19,164c65,58.76,123.81,80,167,59.88A7.15,7.15,0,0,1,188,225h0a7.18,7.18,0,0,1,2.29,6.1C184.53,284.05,257.09,407.83,397,585.85c1.25,1.62,2.49,3.2,3.76,4.81l2,2.47c5.27,6.7,10.65,13.44,16.12,20.29q7.49,9.35,15.17,18.86A6.47,6.47,0,0,1,429.13,642.81Z"/><path d="M404.42,738.72q-.63,19.95-1.11,40.53a2,2,0,0,1-2,2h0a2,2,0,0,1-2-2q-.51-20.58-1.11-40.53Z"/></svg>