<?xml version="1.0" encoding="UTF-8"?>
<svg id="Layer_1" data-name="Layer 1" xmlns="http://www.w3.org/2000/svg" viewBox="0 0 110 24">
  <defs>
    <style>
      .cls-1 {
        fill: #010101;
      }
    </style>
  </defs>
  <path class="cls-1" d="M21.52,8.16c0-.47-.06-.94-.16-1.39-.63-2.94-3.19-5.43-9.25-5.43h-7.32v21.33h1.47v-6.76h5.33c7.58-.26,9.93-3.94,9.93-7.54,0-.07,0-.14,0-.2ZM10.78,15.54h-4.53V1.7h4.86c7.06,0,9.31,3.42,9.31,6.84s-2.28,6.99-9.64,6.99Z"/>
  <path class="cls-1" d="M32.27,5.24c-2.65.13-7.03,1.38-9,2.45l-.16.09.32,1.3.04.17c2.24-1.91,6.81-3.51,9.42-3.72,2.71-.22,4.86,1.32,4.86,4.64-7.66,1.38-14,4.3-14.72,9.74-.05.35-.07.69-.07,1.04,0,.58.05,1.15.16,1.72h1.42c-.08-.52-.11-1.04-.11-1.57,0-.4.02-.8.07-1.19.5-4.01,3.73-7.73,13.25-9.37v12.13h1.47v-10.88c0-4.89-3.24-6.73-6.95-6.55Z"/>
  <path class="cls-1" d="M53.19,19.9l-.13-.3-2.14-4.84c-.99-2.28-3.24-2.32-5.33-1.65v-.04c4.36-3.27,4.91-3.83,7.31-4.75l1.24-3.14-12,9.51V1.33h-1.47v21.33h1.47v-7.6c2.69-1.51,5.81-3.13,7.03-.52l2.45,5.36,1.26,2.76h1.54l-1.22-2.76Z"/>
  <path class="cls-1" d="M74.98,14.43c0-6.18-4.16-9.16-8.54-9.16-4.86,0-9.97,3.68-9.97,10.78,0,1.2.15,2.39.45,3.55.03.1.05.2.08.3.28.97.67,1.89,1.18,2.76h1.19c-.46-.87-.82-1.8-1.05-2.76-.25-1.02-.39-2.06-.41-3.11h16.82c.15-.78.24-1.56.26-2.36ZM73.58,16.42h-15.67c0-7.25,4.45-10.85,8.65-10.85,3.75,0,7.29,2.87,7.29,8.57,0,.77-.09,1.53-.26,2.28h0Z"/>
  <path class="cls-1" d="M89.44,5.9c-.34-.08-.59-.12-.59-.12-5-.86-8.65,3.16-10.71,11.23h-.04V5.2h-1.47v17.47h1.47v-4.54c2.04-8.26,5.88-12.91,10.56-10.93.06.02.12.05.18.08s.15.07.22.11l.37-1.47h0Z"/>
  <path class="cls-1" d="M92.53,21.39h0s-.09-16.23-.09-16.23h-1.38v16.59c0,.3.02.61.05.91h1.51c-.06-.42-.09-.85-.09-1.28ZM105.67,5.16v10.16c-.08,1.65,0,3.09,0,3.09v4.25h1.47V5.16h-1.47Z"/>
  <path class="cls-1" d="M39.22,21.38v1.29h-16.1c-.11-.25-.16-.53-.16-.8,0-.16.02-.33.07-.49h16.19Z"/>
  <path class="cls-1" d="M75.15,21.38v1.29h-16.65c-.39-.37-.71-.81-.95-1.29h17.6Z"/>
  <path class="cls-1" d="M107.14,21.38v1.29h-14.93c-.03-.14-.05-.28-.05-.43v-.86h14.98Z"/>
</svg>