<svg width="22" height="39" viewBox="0 0 22 39" fill="none" xmlns="http://www.w3.org/2000/svg">
<g clip-path="url(#clip0_543_1820)">
<path d="M21 37H19L11 29L3.68555 37H1V2H21V37Z" fill="#FF1111"/>
<path d="M19.6674 39C19.0868 38.9985 18.5282 38.718 18.1042 38.2151L11.5247 30.5623C11.3816 30.394 11.1936 30.3005 10.9984 30.3005C10.8032 30.3005 10.6153 30.394 10.4722 30.5623L3.89418 38.2151C3.56271 38.602 3.14961 38.8583 2.70524 38.9527C2.26087 39.047 1.80444 38.9755 1.39161 38.7466C0.978783 38.5178 0.627393 38.1416 0.380291 37.664C0.133189 37.1863 0.00105449 36.6278 0 36.0566V4.90566C0 3.6046 0.407669 2.35682 1.13332 1.43683C1.85898 0.516845 2.84318 0 3.86941 0H18.1305C19.1567 0 20.1409 0.516845 20.8666 1.43683C21.5923 2.35682 21.9999 3.6046 21.9999 4.90566V36.0507C22.0035 36.6242 21.8731 37.1863 21.6253 37.6661C21.3774 38.1458 21.0231 38.5219 20.6069 38.7469C20.311 38.913 19.9911 38.9992 19.6674 39ZM11 28.3351C11.5833 28.3333 12.1458 28.61 12.5756 29.1102L19.1551 36.763C19.2657 36.8924 19.4037 36.978 19.5521 37.0095C19.7005 37.041 19.8529 37.017 19.9907 36.9403C20.1285 36.8637 20.2457 36.7378 20.3279 36.5781C20.4101 36.4183 20.4539 36.2317 20.4537 36.0409V4.90566C20.4537 4.12502 20.2091 3.37636 19.7737 2.82437C19.3383 2.27237 18.7478 1.96226 18.1321 1.96226H3.86941C3.25367 1.96226 2.66315 2.27237 2.22776 2.82437C1.79237 3.37636 1.54776 4.12502 1.54776 4.90566V36.0507C1.54762 36.2415 1.59135 36.4281 1.67358 36.5879C1.75582 36.7476 1.87301 36.8735 2.0108 36.9501C2.14859 37.0268 2.30101 37.0508 2.4494 37.0193C2.5978 36.9878 2.73574 36.9022 2.84634 36.7728L9.42589 29.1004C9.85641 28.6042 10.4182 28.3311 11 28.3351Z" fill="#FF1111"/>
<path d="M13.2602 5.63636V10H12.6551L10.4371 6.79972H10.3966V10H9.73819V5.63636H10.3476L12.5677 8.84091H12.6082V5.63636H13.2602ZM10.0247 18V12.9091H13.0971V13.456H10.6412V15.1761H12.938V15.723H10.6412V17.4531H13.1369V18H10.0247ZM10.1677 24L9.15914 20.3636H9.73619L10.4446 23.1797H10.4784L11.2152 20.3636H11.787L12.5238 23.1815H12.5576L13.2642 20.3636H13.8431L12.8328 24H12.2806L11.5153 21.2763H11.4869L10.7216 24H10.1677Z" fill="white"/>
</g>
<defs>
<clipPath id="clip0_543_1820">
<rect width="22" height="39" fill="white"/>
</clipPath>
</defs>
</svg>
