<svg width="24" height="24" viewBox="0 0 24 24" fill="none" xmlns="http://www.w3.org/2000/svg">
<g clip-path="url(#clip0_496_48)">
<mask id="mask0_496_48" style="mask-type:luminance" maskUnits="userSpaceOnUse" x="0" y="0" width="24" height="24">
<path d="M24 0H0V24H24V0Z" fill="white"/>
</mask>
<g mask="url(#mask0_496_48)">
<path d="M9.50006 19C8.89561 19 7.01243 19 5.6172 19C4.87381 19 4.39122 18.2177 4.72367 17.5528L5.57777 15.8446C5.85548 15.2892 6.00006 14.6774 6.00006 14.0564C6.00006 13.2867 6.00006 12.1434 6.00006 11C6.00006 9 7.00006 5 12.0001 5C17.0001 5 18.0001 9 18.0001 11C18.0001 12.1434 18.0001 13.2867 18.0001 14.0564C18.0001 14.6774 18.1447 15.2892 18.4224 15.8446L19.2765 17.5528C19.6089 18.2177 19.1254 19 18.3821 19H14.5001M9.50006 19C9.50006 21 10.5001 22 12.0001 22C13.5001 22 14.5001 21 14.5001 19M9.50006 19C11.0622 19 14.5001 19 14.5001 19" stroke="white" stroke-linejoin="round"/>
</g>
</g>
<defs>
<clipPath id="clip0_496_48">
<rect width="24" height="24" fill="white"/>
</clipPath>
</defs>
</svg>
