<svg width="35" height="41" viewBox="0 0 35 41" fill="none" xmlns="http://www.w3.org/2000/svg">
<path d="M17.6201 21.7803C16.9058 21.7831 16.2122 22.0204 15.6459 22.4558C15.0796 22.8911 14.672 23.5004 14.4856 24.19C14.2993 24.8796 14.3447 25.6113 14.6147 26.2726C14.8847 26.9339 15.3644 27.4882 15.9801 27.8503V32.5003H19.3001V27.8503C19.7873 27.5622 20.1915 27.1529 20.4737 26.6622C20.7558 26.1716 20.9061 25.6163 20.9101 25.0503C20.9101 24.6192 20.8249 24.1924 20.6593 23.7943C20.4937 23.3963 20.2511 23.0349 19.9453 22.731C19.6395 22.4271 19.2767 22.1866 18.8776 22.0235C18.4786 21.8603 18.0512 21.7777 17.6201 21.7803Z" stroke="black" stroke-width="1.5" stroke-linecap="round" stroke-linejoin="round"/>
<path d="M29.91 14.2695H5.32C2.93413 14.2695 1 16.2037 1 18.5895V35.6795C1 38.0654 2.93413 39.9995 5.32 39.9995H29.91C32.2959 39.9995 34.23 38.0654 34.23 35.6795V18.5895C34.23 16.2037 32.2959 14.2695 29.91 14.2695Z" stroke="black" stroke-width="1.5" stroke-linecap="round" stroke-linejoin="round"/>
<path d="M6.96997 14.27V11.66C6.96997 8.83279 8.09307 6.12138 10.0922 4.12224C12.0914 2.1231 14.8028 1 17.63 1C20.4572 1 23.1686 2.1231 25.1677 4.12224C27.1669 6.12138 28.29 8.83279 28.29 11.66V14.27" stroke="black" stroke-width="1.5" stroke-linecap="round" stroke-linejoin="round"/>
</svg>
