<svg width="48" height="48" viewBox="0 0 48 48" fill="none" xmlns="http://www.w3.org/2000/svg">
<path fill-rule="evenodd" clip-rule="evenodd" d="M44.095 38.178H3.904C3.33067 38.1772 2.78107 37.949 2.37576 37.5435C1.97045 37.138 1.74253 36.5883 1.742 36.015V34.805H46.258V36.015C46.258 37.207 45.288 38.178 44.095 38.178ZM3.904 10.742H44.094C45.287 10.742 46.258 11.712 46.258 12.904V29.852H1.742V12.904C1.742 11.712 2.712 10.742 3.904 10.742ZM1.742 34.11H46.258V30.55H1.742V34.11ZM44.095 9C45.1301 9.00132 46.1224 9.41303 46.8544 10.1449C47.5865 10.8767 47.9984 11.8689 48 12.904V36.014C47.9989 37.0494 47.5872 38.0422 46.8551 38.7744C46.1231 39.5067 45.1304 39.9187 44.095 39.92H3.904C2.86883 39.9187 1.87645 39.5068 1.14456 38.7747C0.412679 38.0427 0.00105843 37.0502 0 36.015L0 12.904C0.00105891 11.8689 0.412712 10.8765 1.14462 10.1446C1.87654 9.41271 2.86892 9.00106 3.904 9H44.095ZM17.439 25.318H4.735V26.364H17.44V25.318H17.439ZM13.259 23.228H4.734V24.273H13.257V23.228H13.259ZM10.05 13.127H5.55C4.8 13.127 4.19 13.737 4.19 14.487V18.987C4.19 19.737 4.8 20.347 5.55 20.347H10.05C10.8 20.347 11.41 19.737 11.41 18.987V14.487C11.41 13.737 10.8 13.127 10.05 13.127ZM39.63 13.127C39.013 13.1286 38.4091 13.3047 37.888 13.635C37.3668 13.3049 36.7629 13.1288 36.146 13.127C35.2649 13.1281 34.4202 13.4785 33.7971 14.1014C33.174 14.7243 32.8233 15.5689 32.822 16.45C32.8231 17.3313 33.1736 18.1761 33.7967 18.7993C34.4199 19.4224 35.2647 19.7729 36.146 19.774C36.771 19.774 37.364 19.594 37.888 19.266C38.4093 19.5966 39.0137 19.7727 39.631 19.774C40.4952 19.748 41.3152 19.3865 41.9173 18.7661C42.5194 18.1456 42.8561 17.3151 42.8561 16.4505C42.8561 15.5859 42.5194 14.7554 41.9173 14.1349C41.3152 13.5145 40.4942 13.153 39.63 13.127ZM10.05 14.172C10.224 14.172 10.365 14.313 10.365 14.487V18.987C10.3647 19.0705 10.3315 19.1504 10.2724 19.2094C10.2134 19.2685 10.1335 19.3017 10.05 19.302H5.55C5.46637 19.3017 5.38625 19.2683 5.3272 19.2091C5.26816 19.1499 5.235 19.0696 5.235 18.986V14.487C5.235 14.313 5.377 14.172 5.551 14.172H10.05ZM36.146 14.172C36.663 14.172 37.153 14.345 37.563 14.672C38.107 15.103 38.419 15.752 38.419 16.45C38.42 16.7919 38.3435 17.1296 38.1952 17.4378C38.047 17.7459 37.8308 18.0164 37.563 18.229L37.561 18.231C37.1601 18.5538 36.6607 18.7295 36.146 18.729C35.5419 18.7282 34.9628 18.4878 34.5357 18.0606C34.1087 17.6333 33.8685 17.0541 33.868 16.45C33.8688 15.8461 34.1091 15.2671 34.5361 14.8401C34.9631 14.4131 35.5421 14.1728 36.146 14.172ZM39.631 14.172C40.2353 14.172 40.8148 14.4121 41.2421 14.8394C41.6694 15.2667 41.9095 15.8462 41.9095 16.4505C41.9095 17.0548 41.6694 17.6343 41.2421 18.0616C40.8148 18.4889 40.2353 18.729 39.631 18.729C39.316 18.729 39.01 18.665 38.727 18.541C38.73 18.538 38.731 18.535 38.733 18.531C38.837 18.402 38.927 18.265 39.01 18.124C39.031 18.088 39.05 18.052 39.069 18.017C39.143 17.878 39.209 17.737 39.263 17.588L39.274 17.561C39.3417 17.365 39.391 17.1632 39.421 16.958C39.446 16.791 39.464 16.623 39.464 16.45C39.4625 16.2388 39.4414 16.0283 39.401 15.821C39.3709 15.6577 39.3284 15.4969 39.274 15.34L39.264 15.314C39.2093 15.1662 39.1441 15.0225 39.069 14.884C38.973 14.7027 38.8605 14.5307 38.733 14.37L38.727 14.36C39.01 14.236 39.316 14.172 39.631 14.172Z" fill="black"/>
</svg>
