<svg width="24" height="24" viewBox="0 0 24 24" fill="none" xmlns="http://www.w3.org/2000/svg">
<path d="M16.9502 7.0498V7.0598M21 10.5118V7.8C21 6.11984 21 5.27976 20.673 4.63803C20.3854 4.07354 19.9265 3.6146 19.362 3.32698C18.7202 3 17.8802 3 16.2 3H13.4882C12.7545 3 12.3876 3 12.0423 3.08289C11.7362 3.15638 11.4436 3.27759 11.1751 3.44208C10.8724 3.6276 10.613 3.88703 10.0941 4.40589L5.3941 9.10589C4.2061 10.2939 3.612 10.888 3.3895 11.5729C3.1937 12.1755 3.1937 12.8245 3.3895 13.4271C3.612 14.112 4.2061 14.7061 5.3941 15.8941L8.1059 18.6059C9.2939 19.7939 9.888 20.388 10.5729 20.6105C11.1755 20.8063 11.8245 20.8063 12.4271 20.6105C13.112 20.388 13.7061 19.7939 14.8941 18.6059L19.5941 13.9059C20.113 13.387 20.3724 13.1276 20.5579 12.8249C20.7224 12.5564 20.8436 12.2638 20.9171 11.9577C21 11.6124 21 11.2455 21 10.5118ZM16.9502 7.5498C16.6741 7.5498 16.4502 7.32595 16.4502 7.0498C16.4502 6.77366 16.6741 6.5498 16.9502 6.5498C17.2263 6.5498 17.4502 6.77366 17.4502 7.0498C17.4502 7.32595 17.2263 7.5498 16.9502 7.5498Z" stroke="#16a34a" stroke-width="1.3" stroke-linecap="round" stroke-linejoin="round"/>
</svg>
