<svg width="32" height="33" viewBox="0 0 32 33" fill="none" xmlns="http://www.w3.org/2000/svg">
<path fill-rule="evenodd" clip-rule="evenodd" d="M31.003 22.365C31.003 22.655 30.767 22.891 30.477 22.891H29.081C29.0278 22.1084 28.6797 21.3751 28.107 20.839C27.5342 20.303 26.7794 20.0043 25.995 20.003C25.2105 20.0045 24.4558 20.3033 23.8829 20.8392C23.31 21.3752 22.9616 22.1084 22.908 22.891H22.244V12.431H25.166V16.589C25.166 17.279 25.728 17.842 26.419 17.842H30.985C30.995 17.924 31.003 18.007 31.003 18.091V22.365ZM25.995 25.6C24.617 25.6 23.495 24.48 23.495 23.102C23.495 21.724 24.617 20.602 25.995 20.602C26.6575 20.6031 27.2926 20.8669 27.7609 21.3356C28.2292 21.8042 28.4925 22.4395 28.493 23.102C28.4925 23.7644 28.2291 24.3994 27.7608 24.8678C27.2924 25.3361 26.6573 25.5995 25.995 25.6ZM10.732 22.89C10.6784 22.1074 10.33 21.3742 9.75711 20.8382C9.18424 20.3023 8.42948 20.0035 7.645 20.002C6.86055 20.0033 6.10578 20.302 5.53303 20.838C4.96027 21.3741 4.61217 22.1074 4.559 22.89H2.02C1.74876 22.8898 1.48871 22.7819 1.29692 22.5901C1.10513 22.3983 0.997265 22.1383 0.997 21.867V16.917H21.247V22.89H10.732ZM7.645 25.6C6.99446 25.5816 6.37674 25.3103 5.92311 24.8436C5.46948 24.377 5.2157 23.7518 5.2157 23.101C5.2157 22.4502 5.46948 21.8251 5.92311 21.3584C6.37674 20.8918 6.99446 20.6204 7.645 20.602C8.30762 20.6031 8.94279 20.8669 9.41124 21.3355C9.8797 21.8041 10.1432 22.4394 10.144 23.102C10.1435 23.7646 9.87998 24.3998 9.41141 24.8682C8.94285 25.3365 8.30752 25.5998 7.645 25.6ZM2.02 6.33003H20.224C20.788 6.33003 21.247 6.78803 21.247 7.35203V16.52H0.997V7.35303C0.997 6.78903 1.457 6.33003 2.02 6.33003ZM27.92 12.851L30.698 17.073C30.775 17.189 30.832 17.314 30.881 17.443H26.419C26.1925 17.4425 25.9754 17.3522 25.8154 17.192C25.6553 17.0317 25.5653 16.8145 25.565 16.588V12.431H27.139C27.454 12.431 27.747 12.587 27.92 12.851ZM20.224 5.33203C21.338 5.33203 22.244 6.23803 22.244 7.35203V11.433H27.139C27.791 11.433 28.394 11.759 28.752 12.303L31.532 16.525C31.838 16.991 32 17.532 32 18.09V22.364C32 23.204 31.317 23.887 30.477 23.887H28.986C28.636 25.215 27.43 26.197 25.995 26.197C24.56 26.197 23.353 25.215 23.003 23.887H10.637C10.4629 24.5482 10.0751 25.1332 9.53397 25.551C8.99281 25.9688 8.32868 26.196 7.645 26.197C6.96145 26.1959 6.29746 25.9687 5.75647 25.5509C5.21548 25.1331 4.82787 24.5481 4.654 23.887H2.02C1.48434 23.8868 0.970703 23.6739 0.591937 23.2951C0.213171 22.9163 0.00026498 22.4027 0 21.867L0 7.35303C0 6.23903 0.906 5.33303 2.02 5.33303L20.224 5.33203ZM7.645 22.303C7.43336 22.3033 7.23049 22.3876 7.08102 22.5375C6.93156 22.6873 6.84773 22.8904 6.848 23.102C6.84827 23.3137 6.93259 23.5165 7.08244 23.666C7.23228 23.8155 7.43536 23.8993 7.647 23.899C7.85864 23.8988 8.06151 23.8144 8.21098 23.6646C8.36045 23.5148 8.44427 23.3117 8.444 23.1C8.44374 22.8884 8.35941 22.6855 8.20956 22.5361C8.05972 22.3866 7.85664 22.3028 7.645 22.303ZM25.995 22.303C25.887 22.2976 25.779 22.3142 25.6776 22.3518C25.5762 22.3894 25.4835 22.4473 25.4051 22.5218C25.3267 22.5964 25.2643 22.686 25.2217 22.7854C25.179 22.8848 25.1571 22.9919 25.1571 23.1C25.1571 23.2082 25.179 23.3152 25.2217 23.4146C25.2643 23.514 25.3267 23.6037 25.4051 23.6782C25.4835 23.7528 25.5762 23.8106 25.6776 23.8482C25.779 23.8858 25.887 23.9024 25.995 23.897C26.1995 23.8868 26.3922 23.7983 26.5333 23.65C26.6744 23.5017 26.7531 23.3048 26.7531 23.1C26.7531 22.8953 26.6744 22.6984 26.5333 22.5501C26.3922 22.4017 26.1995 22.3133 25.995 22.303ZM7.645 22.702C7.70023 22.6972 7.75587 22.7038 7.80839 22.7216C7.86091 22.7394 7.90915 22.7679 7.95007 22.8053C7.99098 22.8427 8.02367 22.8883 8.04605 22.939C8.06844 22.9897 8.08004 23.0445 8.0801 23.1C8.08017 23.1554 8.06872 23.2103 8.04646 23.2611C8.0242 23.3118 7.99163 23.3575 7.95081 23.395C7.90999 23.4325 7.86181 23.4611 7.80934 23.479C7.75687 23.4969 7.70124 23.5038 7.646 23.499C7.54505 23.492 7.45051 23.447 7.38144 23.373C7.31237 23.2991 7.27389 23.2017 7.27376 23.1005C7.27364 22.9993 7.31187 22.9018 7.38076 22.8277C7.44964 22.7536 7.54407 22.7093 7.645 22.702ZM25.995 22.702C26.1011 22.702 26.2028 22.7442 26.2778 22.8192C26.3529 22.8942 26.395 22.9959 26.395 23.102C26.395 23.2081 26.3529 23.3099 26.2778 23.3849C26.2028 23.4599 26.1011 23.502 25.995 23.502C25.8888 23.502 25.7869 23.4598 25.7118 23.3847C25.6367 23.3096 25.5945 23.2078 25.5945 23.1015C25.5945 22.9953 25.6367 22.8934 25.7118 22.8183C25.7869 22.7432 25.8888 22.702 25.995 22.702Z" fill="#16a34a"/>
</svg>
