<?xml version="1.0" encoding="UTF-8"?>
<svg id="Layer_1" data-name="Layer 1" xmlns="http://www.w3.org/2000/svg" viewBox="0 0 64 64">
  <path d="M.37,37.36l7.23-16.85h2.58l7.25,16.85h-1.42c-.22-1.31-.44-2.41-.65-3.29-.21-.88-.52-1.82-.93-2.81l-.57-1.34h-7.72l-3.2,7.44H.37ZM10,20.92l-3.72,8.66h7.43l-3.72-8.66Z"/>
  <path d="M19.88,37.36v-16.85h2.58v8.38l5.99-4.61c.84-.67,1.56-1.31,2.16-1.91.59-.6,1.03-1.22,1.3-1.86h1.81l-8.75,6.79c1.41-.72,2.62-1.08,3.64-1.08,1.12,0,1.88.46,2.3,1.37l4.33,9.77h-2.58l-4.36-9.55c-.22-.48-.64-.72-1.24-.72-.53,0-1.17.18-1.92.53-.75.35-1.5.8-2.26,1.34l-.41.31v8.09h-2.58Z"/>
  <path d="M40.47,37.03c2.61,0,4.74-.09,6.37-.28,1.63-.18,3.17-.54,4.62-1.07v1.68h-13.57v-16.85h13.19v1.68c-1.27-.5-2.73-.84-4.37-1.04s-3.72-.3-6.23-.3v6.86h9.24v.34h-9.24v8.98Z"/>
  <path d="M68.24,37.36h-2.58l-3.79-6.94c-.29-.56-.76-.84-1.39-.84-.4,0-.89.14-1.47.41-.58.27-1.16.65-1.73,1.13v6.24h-2.58v-16.85h7.41c1.17,0,2.16.19,2.97.58s1.41.89,1.79,1.52c.39.63.58,1.32.58,2.05s-.16,1.39-.48,2.05c-.32.66-.8,1.24-1.45,1.72-.64.48-1.42.79-2.33.94.38.13.68.28.9.47.22.18.41.43.57.73l3.59,6.79ZM63.46,28.58c.53-.37.94-.87,1.23-1.5.28-.63.43-1.3.43-2,0-.77-.17-1.47-.52-2.11-.34-.64-.86-1.15-1.56-1.54-.7-.38-1.54-.58-2.54-.58h-3.23v9.94c.71-.54,1.43-.97,2.17-1.28.74-.31,1.46-.45,2.17-.42s1.32-.14,1.86-.5Z"/>
</svg>