<svg width="766" height="160" viewBox="0 0 766 160" fill="none" xmlns="http://www.w3.org/2000/svg">
<g clip-path="url(#clip0_495_27)">
<path d="M125.32 51.4802C125.246 47.9726 124.838 44.4801 124.1 41.0502C119.36 19.0502 100.21 0.430176 54.8801 0.430176H0.110107V160H11.1101V109.44H51.0001C107.69 107.51 125.3 79.9802 125.3 53.0102C125.34 52.5002 125.34 52.0002 125.32 51.4802ZM45.0001 106.68H11.1201V3.18018H47.4601C100.29 3.18018 117.09 28.7802 117.09 54.3802C117.09 80.5302 100 106.68 45.0001 106.68Z" fill="white"/>
<path d="M205.75 29.6102C185.93 30.6102 153.17 39.9302 138.43 47.9302L137.21 48.6002L139.64 58.3602L139.96 59.6102C156.75 45.3002 190.9 33.3702 210.43 31.8102C230.73 30.2002 246.76 41.7202 246.76 66.5002C189.49 76.8602 142 98.6902 136.62 139.34C136.272 141.929 136.101 144.538 136.11 147.15C136.089 151.463 136.498 155.768 137.33 160H147.93C147.369 156.112 147.098 152.188 147.12 148.26C147.118 145.282 147.301 142.306 147.67 139.35C151.41 109.35 175.59 81.5402 246.76 69.2602V160H257.76V78.6102C257.77 42.0002 233.52 28.2302 205.75 29.6102Z" fill="white"/>
<path d="M362.28 139.34L361.28 137.13L345.28 100.9C337.85 83.8402 321.06 83.5602 305.37 88.5202V88.2402C338 63.7502 342.13 59.6202 360.02 52.7402L369.26 29.2402L279.49 100.35V0.430176H268.49V160H279.49V103.11C299.59 91.8202 322.98 79.7102 332.07 99.2502L350.41 139.34L359.87 160H371.4L362.28 139.34Z" fill="white"/>
<path d="M525.3 98.4301C525.3 52.1801 494.2 29.8901 461.44 29.8901C425.11 29.8901 386.85 57.4101 386.85 110.54C386.819 119.511 387.945 128.448 390.2 137.13C390.4 137.87 390.6 138.62 390.81 139.34C392.883 146.572 395.859 153.514 399.67 160H408.55C405.084 153.466 402.435 146.531 400.66 139.35C398.777 131.721 397.744 123.907 397.58 116.05H523.38C524.534 110.244 525.176 104.348 525.3 98.4301ZM514.84 113.29H397.58C397.58 59.0601 430.89 32.0901 462.27 32.0901C490.35 32.0901 516.77 53.5601 516.77 96.2201C516.78 101.965 516.133 107.692 514.84 113.29Z" fill="white"/>
<path d="M633.46 34.5598C630.92 33.9498 629.08 33.6599 629.08 33.6599C591.7 27.2299 564.35 57.2899 548.98 117.66H548.7V29.3398H537.7V160H548.7V126C563.95 64.1798 592.7 29.4298 627.7 44.2498C628.15 44.4298 628.6 44.6198 629.06 44.8398C629.52 45.0598 630.16 45.3499 630.71 45.6299L633.46 34.6299V34.5598Z" fill="white"/>
<path d="M656.61 150.46V150.36L655.93 29.0698H645.6V153.21C645.603 155.479 645.737 157.746 646 160H657.27C656.829 156.839 656.608 153.651 656.61 150.46ZM754.88 29.0698V105.07C754.3 117.43 754.88 128.19 754.88 128.19V160H765.88V29.0698H754.88Z" fill="white"/>
<path d="M257.77 150.36V160H137.33C136.515 158.105 136.1 156.062 136.11 154C136.103 152.768 136.274 151.542 136.62 150.36H257.77Z" fill="white"/>
<path d="M526.56 150.36V160H402C399.113 157.208 396.713 153.953 394.9 150.37L526.56 150.36Z" fill="white"/>
<path d="M765.89 150.36V160H654.23C653.979 158.959 653.854 157.891 653.86 156.82V150.36H765.89Z" fill="white"/>
</g>
<defs>
<clipPath id="clip0_495_27">
<rect width="766" height="160" fill="white"/>
</clipPath>
</defs>
</svg>
