<?xml version="1.0" encoding="UTF-8"?>
<svg id="pause" xmlns="http://www.w3.org/2000/svg" viewBox="0 0 24 24">
  <defs>
    <style>
      .cls-1 {
        fill: #010101;
      }

      .cls-2 {
        stroke-linecap: round;
        stroke-linejoin: round;
        stroke-width: .6px;
      }

      .cls-2, .cls-3 {
        fill: none;
        stroke: #010101;
      }

      .cls-3 {
        stroke-width: .5px;
      }
    </style>
  </defs>
  <path class="cls-3" d="M18.95,1.59H4.97c-1.24,0-2.25.95-2.25,2.13v16.14c0,1.17,1.01,2.12,2.25,2.12h13.98c1.24,0,2.25-.95,2.25-2.12V3.72c0-1.18-1.01-2.13-2.25-2.13Z"/>
  <path class="cls-3" d="M2.72,5.42h18.48"/>
  <path class="cls-3" d="M6.54,1.6v3.82"/>
  <path class="cls-3" d="M11.96,7.46c-3.52,0-6.37,2.85-6.37,6.37s2.85,6.37,6.37,6.37,6.37-2.85,6.37-6.37-2.85-6.37-6.37-6.37ZM8.2,15.74c-.12-.23-.21-.47-.28-.73"/>
  <path class="cls-1" d="M13.52,17.7l-1.88.27-1.34-.27-.25-.05-.14-.14-.82-.82-.71-.95-.24-.32,1.91-.64h1.59l.94-.32c.42.64,1.55,1.92,2.57,1.92h.05l-1.68,1.32Z"/>
  <path class="cls-1" d="M12.92,15.74h-4.72c-.12-.23-.21-.47-.28-.73.32-1.05,1.29-1.82,2.45-1.82.94,0,1.77.51,2.21,1.27.22.37.34.81.34,1.28Z"/>
  <line class="cls-2" x1="9.34" y1="3.51" x2="10.97" y2="3.51"/>
  <line class="cls-2" x1="13.06" y1="3.51" x2="14.69" y2="3.51"/>
  <line class="cls-2" x1="16.79" y1="3.51" x2="18.41" y2="3.51"/>
  <path class="cls-3" d="M16.05,13.88c0,.94-.32,1.81-.85,2.5-.43.57-1.01,1.03-1.68,1.32-.5.21-1.04.32-1.61.32s-1.12-.11-1.61-.32c-.14-.06-.26-.12-.39-.19-.73-.4-1.33-1.02-1.71-1.77-.12-.23-.21-.47-.28-.73-.11-.36-.16-.74-.16-1.13,0-2.28,1.86-4.14,4.15-4.14s4.14,1.86,4.14,4.14Z"/>
</svg>